<?xml version="1.0" encoding="UTF-8"?>
<svg version="1.1" xmlns="http://www.w3.org/2000/svg" width="2560" height="612">
<path d="M0 0 C-0.01160156 1.22074219 -0.02320313 2.44148438 -0.03515625 3.69921875 C-0.15689143 21.53251361 0.7775799 37.42876201 8 54 C8.35191406 53.04480469 8.70382813 52.08960938 9.06640625 51.10546875 C12.21757622 42.76693825 15.71612795 35.25214368 21 28 C21.50917969 27.29488281 22.01835937 26.58976562 22.54296875 25.86328125 C32.57762787 13.25182078 49.19082346 4.9180876 65 3 C67.75746908 2.91314955 70.4882677 2.86887095 73.24473572 2.87974548 C74.0470094 2.87889106 74.84928309 2.87803663 75.67586809 2.87715632 C78.34895798 2.87551661 81.02198431 2.88099805 83.69506836 2.88647461 C85.61725869 2.88675683 87.53944913 2.88659806 89.4616394 2.8860321 C94.66974595 2.8857455 99.8778294 2.89162009 105.08593059 2.89860606 C110.53251068 2.90486241 115.97909131 2.90544521 121.42567444 2.90663147 C131.7350345 2.90973805 142.04438394 2.91794238 152.35373932 2.92798096 C164.09249187 2.93916298 175.83124493 2.94465781 187.57000148 2.94967639 C211.71334021 2.96012555 235.85666951 2.97771198 260 3 C260.02581591 5.40705169 260.04468263 7.81382368 260.05957031 10.22094727 C260.06755646 10.89896645 260.0755426 11.57698563 260.08377075 12.27555084 C260.10738768 17.36838716 259.52195877 21.19270678 257.75 25.9375 C257.40449097 26.87275513 257.40449097 26.87275513 257.05200195 27.8269043 C256.39763599 29.56273192 255.70049333 31.28226852 255 33 C254.68933594 33.78117187 254.37867188 34.56234375 254.05859375 35.3671875 C250.52829168 43.25100108 244.28563388 50.18578866 238 56 C237.49855469 56.51820313 236.99710937 57.03640625 236.48046875 57.5703125 C223.43383512 70.24743363 204.72753499 75.1534097 187.01049805 75.1418457 C185.70169678 75.14705734 185.70169678 75.14705734 184.36645508 75.15237427 C182.48188086 75.15969427 180.59729823 75.16505953 178.71271324 75.16866493 C175.72269719 75.17587535 172.732841 75.19157541 169.74287415 75.21000671 C161.24502741 75.26226457 152.74727161 75.3104328 144.24926758 75.32592773 C139.04091003 75.33604417 133.83296105 75.36545637 128.6247654 75.40724754 C126.64859935 75.41950494 124.6723755 75.42468849 122.69617271 75.42244911 C109.66602818 75.41131521 98.78591381 75.53478625 88.7578125 84.93359375 C83.28148377 91.37132241 80.57914403 99.06351935 80.73046875 107.44140625 C81.70561041 116.69818579 85.99379775 124.0181657 93 130 C103.24221356 136.50926267 114.64603604 135.73358563 126.296875 135.70703125 C128.34240173 135.72016675 130.38791555 135.73547661 132.43341064 135.75285339 C137.77957075 135.7924994 143.12538995 135.80288065 148.47167969 135.80688477 C153.94216113 135.81625482 159.41244548 135.85369243 164.8828125 135.88867188 C175.58853262 135.95303984 186.29410326 135.98645029 197 136 C197.01608003 138.56838456 197.02783462 141.13666743 197.03710938 143.70507812 C197.04457184 144.79045868 197.04457184 144.79045868 197.05218506 145.89776611 C197.09912917 163.23496803 190.32662335 180.50519429 178.140625 192.8984375 C177.43421875 193.59195313 176.7278125 194.28546875 176 195 C175.43796875 195.63164062 174.8759375 196.26328125 174.296875 196.9140625 C164.08598532 208.16586812 147.83346678 214.28959578 133 216 C127.43333624 216.22437474 121.88206544 216.19094147 116.3125 216.125 C114.8209696 216.11494292 113.32943258 216.10582192 111.83789062 216.09765625 C108.22512026 216.07587544 104.61260407 216.0414985 101 216 C101.06856201 216.73718262 101.13712402 217.47436523 101.20776367 218.23388672 C104.28838494 252.92328179 101.20980635 287.13926139 78.640625 314.90234375 C66.42869316 328.90395525 52.40925462 338.12688941 34.75 343.75 C34.0885498 343.96092285 33.42709961 344.1718457 32.74560547 344.38916016 C25.09788482 346.7250588 17.74339361 347.16650172 9.81640625 347.203125 C8.35665627 347.21167511 8.35665627 347.21167511 6.86741638 347.22039795 C4.81079177 347.22981357 2.7541523 347.2363682 0.69750977 347.24023438 C-2.3966022 347.2498726 -5.49002983 347.28090133 -8.58398438 347.3125 C-20.1093003 347.37339375 -30.77390265 346.71220014 -42 344 C-42.9182959 343.78738525 -43.8365918 343.57477051 -44.78271484 343.35571289 C-61.65294693 339.22267321 -77.85265531 328.0092656 -89 315 C-89 314.34 -89 313.68 -89 313 C-89.66 313 -90.32 313 -91 313 C-92.69182777 310.65700112 -94.23781133 308.33139949 -95.75 305.875 C-96.19811035 305.14724365 -96.6462207 304.4194873 -97.10791016 303.66967773 C-111.75215644 279.38327074 -115.31054136 251.55582659 -109 224 C-108.84289551 223.3080957 -108.68579102 222.61619141 -108.52392578 221.90332031 C-104.76952509 206.14308883 -97.75661698 191.16940642 -90.375 176.8125 C-87.50833616 171.21535587 -85.04526325 165.51253076 -82.6875 159.6875 C-82.34960449 158.86290283 -82.01170898 158.03830566 -81.66357422 157.1887207 C-78.22589947 148.53709419 -76.67581749 140.74545192 -76.875 131.4375 C-76.88402344 130.61958984 -76.89304688 129.80167969 -76.90234375 128.95898438 C-76.92557719 126.9725254 -76.96143261 124.98622043 -77 123 C-73.22237083 124.12106857 -70.35788953 125.14544546 -67.4375 127.8125 C-66.8496875 128.34746094 -66.261875 128.88242188 -65.65625 129.43359375 C-64.83640625 130.20896484 -64.83640625 130.20896484 -64 131 C-63.154375 131.78375 -62.30875 132.5675 -61.4375 133.375 C-58.32891074 136.72271151 -55.64213192 140.27804025 -53 144 C-52.443125 144.78375 -51.88625 145.5675 -51.3125 146.375 C-44.81040246 159.37919509 -46.68434701 171.42315467 -50.42236328 184.90478516 C-54.96466364 201.38070303 -58.46698915 214.19495359 -50 230 C-50 230.66 -50 231.32 -50 232 C-49.34 232 -48.68 232 -48 232 C-47.01 234.475 -47.01 234.475 -46 237 C-45.34 237 -44.68 237 -44 237 C-43.67 238.32 -43.34 239.64 -43 241 C-42.34 241 -41.68 241 -41 241 C-40.01 243.475 -40.01 243.475 -39 246 C-38.34 246 -37.68 246 -37 246 C-35.7109375 247.53125 -35.7109375 247.53125 -34.375 249.5 C-33.92898437 250.1496875 -33.48296875 250.799375 -33.0234375 251.46875 C-32.51683594 252.22671875 -32.51683594 252.22671875 -32 253 C-28.56725208 251.28362604 -27.67095823 247.32336087 -26.1875 243.9375 C-25.65564087 242.73250854 -25.65564087 242.73250854 -25.11303711 241.50317383 C-17.84429441 224.66725217 -11.76866228 205.80581775 -18.671875 187.8671875 C-22.35829772 179.9088514 -27.09851955 172.74156453 -32.1796875 165.62109375 C-50.46975558 139.28496568 -59.46965829 111.03211516 -54 79 C-53.03072388 73.87811745 -51.65718429 68.94258111 -50 64 C-49.47792969 62.39705078 -49.47792969 62.39705078 -48.9453125 60.76171875 C-45.70634361 51.61442385 -41.02640937 43.26881649 -36 35 C-35.63793457 34.40429199 -35.27586914 33.80858398 -34.90283203 33.19482422 C-33.99356712 31.75792478 -33.00354448 30.37271306 -32 29 C-31.34 29 -30.68 29 -30 29 C-29.67322266 27.95585937 -29.67322266 27.95585937 -29.33984375 26.890625 C-27.65946096 23.26530937 -25.27559982 20.62266883 -22.5625 17.75 C-22.03406494 17.18369873 -21.50562988 16.61739746 -20.96118164 16.03393555 C-5.71226685 0 -5.71226685 0 0 0 Z " fill="#1B93F0" transform="translate(131,101)"/>
<path d="M0 0 C20.13 0 40.26 0 61 0 C61 47.52 61 95.04 61 144 C93.34 144 125.68 144 159 144 C159 96.48 159 48.96 159 0 C178.8 0 198.6 0 219 0 C219 111.21 219 222.42 219 337 C199.2 337 179.4 337 159 337 C159 292.45 159 247.9 159 202 C126.66 202 94.32 202 61 202 C61 246.55 61 291.1 61 337 C40.87 337 20.74 337 0 337 C0 225.79 0 114.58 0 0 Z " fill="#0AADEB" transform="translate(1906,92)"/>
<path d="M0 0 C134.54482759 0 134.54482759 0 159 24 C159.94166016 24.90492187 159.94166016 24.90492187 160.90234375 25.828125 C179.17024856 44.8830824 181.6750734 73.89004108 181.25 98.88671875 C180.46442919 123.75396269 174.13198383 149.22474426 157 168 C156.47148438 168.62003906 155.94296875 169.24007812 155.3984375 169.87890625 C148.92850286 177.00220867 139.68005964 182.05562507 131 186 C130.01 186 129.02 186 128 186 C128.32572998 186.6712793 128.65145996 187.34255859 128.98706055 188.03417969 C136.9264987 204.41437758 144.69063457 220.86538211 152.32763672 237.38916016 C154.91168895 242.96844958 157.51401471 248.53916625 160.11685181 254.10971069 C167.10247134 269.06172215 174.07722371 284.01876609 181 299 C181.5067627 300.09602539 182.01352539 301.19205078 182.53564453 302.32128906 C183.965964 305.4203922 185.39042589 308.52210617 186.8125 311.625 C187.23950195 312.54990234 187.66650391 313.47480469 188.10644531 314.42773438 C188.49026367 315.26884766 188.87408203 316.10996094 189.26953125 316.9765625 C189.60573486 317.70955566 189.94193848 318.44254883 190.28833008 319.19775391 C191 321 191 321 191 323 C170.21 323 149.42 323 128 323 C123.20398306 313.40796612 118.46923641 303.86113182 114 294.125 C112.87581957 291.68972077 111.75099594 289.2547516 110.625 286.8203125 C110.18873291 285.87650726 110.18873291 285.87650726 109.74365234 284.91363525 C106.53585218 277.98212103 103.27924358 271.07371493 100.02133179 264.16564941 C95.2632644 254.07656184 90.51121616 243.98484741 85.81152344 233.8684082 C84.74215612 231.56811101 83.6686906 229.26971385 82.59082031 226.97338867 C79.96116323 221.3482056 77.4372429 215.70438683 75.06640625 209.96484375 C74.59114502 208.84480957 74.11588379 207.72477539 73.6262207 206.57080078 C72.7338285 204.45799851 71.86975242 202.33292333 71.03979492 200.19482422 C70.63994385 199.26041504 70.24009277 198.32600586 69.828125 197.36328125 C69.4971582 196.54126221 69.16619141 195.71924316 68.82519531 194.87231445 C66.37962352 191.96742577 66.37962352 191.96742577 58 192 C58 235.23 58 278.46 58 323 C38.86 323 19.72 323 0 323 C0 216.41 0 109.82 0 0 Z M58 56 C58 82.4 58 108.8 58 136 C67.8690625 136.12375 67.8690625 136.12375 77.9375 136.25 C79.99605225 136.28641602 82.05460449 136.32283203 84.17553711 136.36035156 C85.8344621 136.37205028 87.49339871 136.38223929 89.15234375 136.390625 C89.99156372 136.41108887 90.83078369 136.43155273 91.69543457 136.45263672 C100.7245155 136.45788695 107.75171561 133.03930913 114.28125 126.8984375 C123.00546116 117.26214972 123.65773581 102.75686461 123.28125 90.37890625 C122.68467931 78.94712038 119.79597358 69.95697285 111.75 61.6875 C100.73825682 54.93029396 90.43614174 55.52680493 77.875 55.75 C68.036875 55.87375 68.036875 55.87375 58 56 Z " fill="#0AADEB" transform="translate(455,98)"/>
<path d="M0 0 C19.8 0 39.6 0 60 0 C60.33 41.58 60.66 83.16 61 126 C62.32 124.35 63.64 122.7 65 121 C78.90309055 109.27343162 94.73667306 103.55339985 113 105 C132.44191583 106.6605195 148.6754274 113.69841254 161.70214844 128.44042969 C188.8942076 161.11591387 191.55160149 211.06606461 188.23876953 251.45068359 C186.95081116 265.20207551 185.00905905 278.75855642 181 292 C180.79004395 292.69432129 180.58008789 293.38864258 180.36376953 294.10400391 C173.12199688 317.42808649 159.59651582 337.56799502 137.60546875 349.2734375 C120.49233037 357.46846151 99.60600834 358.82473942 81.44921875 353.25390625 C71.15864739 349.51293976 63.65354589 342.65354589 56 335 C55.65066406 336.07121094 55.30132813 337.14242188 54.94140625 338.24609375 C54.48192855 339.64328104 54.02228454 341.04041365 53.5625 342.4375 C53.33240234 343.14455078 53.10230469 343.85160156 52.86523438 344.58007812 C51.11328125 349.88671875 51.11328125 349.88671875 50 351 C48.28134591 351.0935919 46.55884256 351.11744611 44.83764648 351.11352539 C43.73658066 351.11344986 42.63551483 351.11337433 41.50108337 351.11329651 C40.3031868 351.10813522 39.10529022 351.10297394 37.87109375 351.09765625 C36.65172623 351.0962413 35.4323587 351.09482635 34.17604065 351.09336853 C30.2631693 351.08774967 26.35035419 351.07519396 22.4375 351.0625 C19.79231853 351.05748743 17.14713617 351.0529241 14.50195312 351.04882812 C8.00128274 351.03777411 1.50064539 351.02101764 -5 351 C-4.91435791 350.13125244 -4.82871582 349.26250488 -4.74047852 348.36743164 C-4.41239404 345.00351354 -4.09088946 341.63907954 -3.77319336 338.27416992 C-3.63697262 336.8442468 -3.49845784 335.41453954 -3.35717773 333.98510742 C-1.1054813 311.1511172 -0.84507287 288.25580809 -0.79939139 265.32726347 C-0.79121254 261.74960756 -0.77757828 258.17197128 -0.76467896 254.59432983 C-0.74315777 248.42767405 -0.72492744 242.26101604 -0.70907402 236.09434319 C-0.686149 227.17888617 -0.65804056 218.26345111 -0.62875474 209.34801299 C-0.58135214 194.87565453 -0.53801594 180.40328695 -0.49731445 165.9309082 C-0.45781904 151.89053645 -0.41636034 137.8501727 -0.37231445 123.80981445 C-0.36959018 122.94119284 -0.36686591 122.07257122 -0.36405908 121.17762773 C-0.3503773 116.81906062 -0.33665748 112.46049362 -0.32291877 108.10192668 C-0.20938454 72.067967 -0.10324545 36.03399092 0 0 Z M75.1171875 174.19140625 C59.40570266 195.3781055 59.60827474 223.78479564 59.40966797 249.06054688 C59.38635032 251.12169549 59.34502103 253.18271102 59.28662109 255.24316406 C58.56468081 270.85042853 58.56468081 270.85042853 65.93017578 284.01342773 C66.61321777 284.66899658 67.29625977 285.32456543 68 286 C69.16854334 287.31082944 70.33556942 288.62301577 71.5 289.9375 C77.88950703 296.04856521 85.31978401 298.39583757 94.0234375 298.26953125 C101.71393677 297.57314746 107.87228145 294.31877217 113.0546875 288.6328125 C121.15377738 277.67139366 124.9299647 265.33337193 127 252 C127.1016748 251.34741211 127.20334961 250.69482422 127.30810547 250.02246094 C128.31480524 242.43183697 128.24271138 234.76883002 128.25 227.125 C128.25100708 226.39311462 128.25201416 225.66122925 128.25305176 224.90716553 C128.23587119 206.42946877 127.74181 184.66273627 114.40625 170.28125 C109.3747852 165.61570991 103.90437535 162.94927595 97 162.625 C88.20656482 163.03719227 80.76816839 167.61422725 75.1171875 174.19140625 Z " fill="#0AADEB" transform="translate(2351,78)"/>
<path d="M0 0 C-0.01160156 1.22074219 -0.02320313 2.44148438 -0.03515625 3.69921875 C-0.23618953 33.14909402 5.30528632 59.57738889 24 83 C25.17552665 84.54048432 26.35091191 86.08107817 27.52416992 87.62329102 C32.54088685 94.20101784 37.72790306 100.62487568 43 107 C46.01021787 110.65840347 49.00852376 114.32625725 52 118 C52.70261963 118.85899902 52.70261963 118.85899902 53.41943359 119.73535156 C71.71124289 142.13372867 71.71124289 142.13372867 74 149 C72.02 149.99 72.02 149.99 70 151 C70 151.66 70 152.32 70 153 C68.65478516 154.23681641 68.65478516 154.23681641 66.7890625 155.6015625 C66.12132812 156.09140625 65.45359375 156.58125 64.765625 157.0859375 C64.05921875 157.59382812 63.3528125 158.10171875 62.625 158.625 C61.57699219 159.3984375 61.57699219 159.3984375 60.5078125 160.1875 C55.26310351 164 55.26310351 164 53 164 C53 164.66 53 165.32 53 166 C52.34 166.66 51.68 167.32 51 168 C51.58910156 168.60328125 52.17820313 169.2065625 52.78515625 169.828125 C53.53667969 170.62734375 54.28820312 171.4265625 55.0625 172.25 C55.81660156 173.03890625 56.57070312 173.8278125 57.34765625 174.640625 C59 177 59 177 59.0703125 178.98046875 C55.03984981 186.58539288 45.19921846 192.7610558 38.5 198.0625 C37.91323486 198.5272876 37.32646973 198.9920752 36.72192383 199.47094727 C33.933516 201.6384562 31.24933667 203.5903613 28 205 C28 205.99 28 206.98 28 208 C24.02361267 205.1281647 21.48469141 202.23317796 19 198 C19 197.34 19 196.68 19 196 C18.41089844 195.75765625 17.82179687 195.5153125 17.21484375 195.265625 C14.59007563 193.7657575 13.34994848 192.17729724 11.5625 189.75 C8.8041055 186.07015906 5.9702399 182.51028352 3 179 C3.62110177 181.98841922 4.3141721 183.49779502 6.01171875 186.1875 C9.40556781 192.86735907 8.82470192 200.67960031 8.8125 208 C8.81634705 208.79768799 8.82019409 209.59537598 8.82415771 210.41723633 C8.82188189 223.39465421 6.69091051 233.98319863 1.1640625 245.84375 C-1.02209776 250.57217051 -1.88285104 255.10457088 -2.52978516 260.25585938 C-3.01160887 263.06774852 -3.89660222 265.37936092 -5 268 C-5.50014953 270.54258463 -5.50014953 270.54258463 -5 273 C-3.0624994 275.18777466 -3.0624994 275.18777466 -1 277 C-1 277.66 -1 278.32 -1 279 C-0.44570312 279.22558594 0.10859375 279.45117188 0.6796875 279.68359375 C3.68506155 281.38866286 5.72987003 283.57799951 8.125 286.0625 C11.24105765 289.46453483 11.24105765 289.46453483 15 292 C13.46482795 301.16305818 8.13544066 307.31757322 1.79296875 313.8359375 C-0.31899716 315.91663372 -0.31899716 315.91663372 0 319 C1.56046865 320.70302804 1.56046865 320.70302804 3.625 322.3125 C6.32783725 324.56566167 8.87997451 326.83218369 11.3125 329.375 C13.78303969 332.17026918 13.78303969 332.17026918 17 333 C17 334.32 17 335.64 17 337 C37.00333263 324.90239626 47.63394394 309.35564265 53.49072266 286.74829102 C54.4043838 283.01731025 55.10993346 279.37673768 55.5078125 275.5546875 C56 272 56 272 58 270 C57.67 269.67 57.34 269.34 57 269 C56.78732258 266.41242474 56.6232145 263.84206806 56.5 261.25 C56.29147186 255.93424691 56.29147186 255.93424691 55.49511719 250.6862793 C50.48137504 223.48400869 54.68903989 187.2743013 70 164 C71.58265303 161.87733413 73.20582893 159.95248029 75 158 C75 161.16288537 74.18795289 163.28612903 73.01806641 166.18725586 C60.10368339 198.26063095 67.25719885 232.84871745 72 266 C72.75667969 265.36578125 73.51335937 264.7315625 74.29296875 264.078125 C77.14449638 261.88907349 79.56154362 260.95956922 83 260 C86.41242807 265.1186421 86.1292186 271.01059775 86.31640625 277.02734375 C86.37924805 278.95610352 86.37924805 278.95610352 86.44335938 280.92382812 C86.483157 282.26171625 86.52286951 283.59960691 86.5625 284.9375 C86.60576654 286.30274562 86.64938321 287.66798018 86.69335938 289.03320312 C86.79901153 292.35537652 86.90111395 295.67761946 87 299 C88.65 295.7 90.3 292.4 92 289 C93 292 93 292 92.35546875 293.98828125 C81.03185581 316.52189228 63.13146946 334.1980899 39.00390625 342.375 C29.20170621 345.57984633 20.14168868 347.15542142 9.81640625 347.203125 C8.35665627 347.21167511 8.35665627 347.21167511 6.86741638 347.22039795 C4.81079177 347.22981357 2.7541523 347.2363682 0.69750977 347.24023438 C-2.3966022 347.2498726 -5.49002983 347.28090133 -8.58398438 347.3125 C-20.1093003 347.37339375 -30.77390265 346.71220014 -42 344 C-42.9182959 343.78738525 -43.8365918 343.57477051 -44.78271484 343.35571289 C-61.65294693 339.22267321 -77.85265531 328.0092656 -89 315 C-89 314.34 -89 313.68 -89 313 C-89.66 313 -90.32 313 -91 313 C-92.69182777 310.65700112 -94.23781133 308.33139949 -95.75 305.875 C-96.19811035 305.14724365 -96.6462207 304.4194873 -97.10791016 303.66967773 C-111.75215644 279.38327074 -115.31054136 251.55582659 -109 224 C-108.84289551 223.3080957 -108.68579102 222.61619141 -108.52392578 221.90332031 C-104.76952509 206.14308883 -97.75661698 191.16940642 -90.375 176.8125 C-87.50833616 171.21535587 -85.04526325 165.51253076 -82.6875 159.6875 C-82.34960449 158.86290283 -82.01170898 158.03830566 -81.66357422 157.1887207 C-78.22589947 148.53709419 -76.67581749 140.74545192 -76.875 131.4375 C-76.88402344 130.61958984 -76.89304688 129.80167969 -76.90234375 128.95898438 C-76.92557719 126.9725254 -76.96143261 124.98622043 -77 123 C-73.22237083 124.12106857 -70.35788953 125.14544546 -67.4375 127.8125 C-66.8496875 128.34746094 -66.261875 128.88242188 -65.65625 129.43359375 C-64.83640625 130.20896484 -64.83640625 130.20896484 -64 131 C-63.154375 131.78375 -62.30875 132.5675 -61.4375 133.375 C-58.32891074 136.72271151 -55.64213192 140.27804025 -53 144 C-52.443125 144.78375 -51.88625 145.5675 -51.3125 146.375 C-44.81040246 159.37919509 -46.68434701 171.42315467 -50.42236328 184.90478516 C-54.96466364 201.38070303 -58.46698915 214.19495359 -50 230 C-50 230.66 -50 231.32 -50 232 C-49.34 232 -48.68 232 -48 232 C-47.01 234.475 -47.01 234.475 -46 237 C-45.34 237 -44.68 237 -44 237 C-43.67 238.32 -43.34 239.64 -43 241 C-42.34 241 -41.68 241 -41 241 C-40.01 243.475 -40.01 243.475 -39 246 C-38.34 246 -37.68 246 -37 246 C-35.7109375 247.53125 -35.7109375 247.53125 -34.375 249.5 C-33.92898437 250.1496875 -33.48296875 250.799375 -33.0234375 251.46875 C-32.51683594 252.22671875 -32.51683594 252.22671875 -32 253 C-28.56725208 251.28362604 -27.67095823 247.32336087 -26.1875 243.9375 C-25.65564087 242.73250854 -25.65564087 242.73250854 -25.11303711 241.50317383 C-17.84429441 224.66725217 -11.76866228 205.80581775 -18.671875 187.8671875 C-22.35829772 179.9088514 -27.09851955 172.74156453 -32.1796875 165.62109375 C-50.46975558 139.28496568 -59.46965829 111.03211516 -54 79 C-53.03072388 73.87811745 -51.65718429 68.94258111 -50 64 C-49.47792969 62.39705078 -49.47792969 62.39705078 -48.9453125 60.76171875 C-45.70634361 51.61442385 -41.02640937 43.26881649 -36 35 C-35.63793457 34.40429199 -35.27586914 33.80858398 -34.90283203 33.19482422 C-33.99356712 31.75792478 -33.00354448 30.37271306 -32 29 C-31.34 29 -30.68 29 -30 29 C-29.67322266 27.95585937 -29.67322266 27.95585937 -29.33984375 26.890625 C-27.65946096 23.26530937 -25.27559982 20.62266883 -22.5625 17.75 C-22.03406494 17.18369873 -21.50562988 16.61739746 -20.96118164 16.03393555 C-5.71226685 0 -5.71226685 0 0 0 Z " fill="#4BA1FE" transform="translate(131,101)"/>
<path d="M0 0 C4.37646224 3.29476261 8.21129851 7.05592589 12 11 C12.88558594 11.87398437 12.88558594 11.87398437 13.7890625 12.765625 C33.56604302 33.70595732 34.44033012 64.0372997 34.44140625 91.00390625 C34.45321636 93.61580632 34.46658924 96.22769974 34.48143005 98.83958435 C34.51832062 105.69073188 34.53780212 112.54184098 34.55297852 119.39306641 C34.58001792 131.596761 34.62625295 143.80035617 34.69140625 156.00390625 C34.69810963 157.3000246 34.704813 158.59614296 34.71171951 159.93153763 C34.79435934 190.65374107 34.79435934 190.65374107 37.56469727 221.22875977 C38.0531214 225.4602166 38 229.74044779 38 234 C18.2 234 -1.6 234 -22 234 C-23.32 228.72 -24.64 223.44 -26 218 C-27.27875 219.36125 -28.5575 220.7225 -29.875 222.125 C-42.94802158 235.07622324 -59.96691477 239.30093475 -77.95458984 239.2421875 C-94.01642934 238.98254976 -109.22542659 233.96821617 -121 222.8125 C-137.94816923 204.28657327 -141.91937453 181.59392731 -141.109375 157.19775391 C-140.15176731 137.95582429 -133.39599353 120.15819591 -119.56640625 106.6171875 C-102.65452121 91.79101785 -80.9404559 87.80026828 -59.0625 87.8125 C-57.87422607 87.81185547 -56.68595215 87.81121094 -55.46166992 87.81054688 C-46.18460047 87.86587606 -37.15790941 88.55333448 -28 90 C-27.91197848 86.0209757 -27.85926767 82.04220612 -27.8125 78.0625 C-27.78736328 76.94552734 -27.76222656 75.82855469 -27.73632812 74.67773438 C-27.66455719 66.51977157 -28.13707587 58.40523235 -33.875 52.0625 C-34.34679688 51.51722656 -34.81859375 50.97195312 -35.3046875 50.41015625 C-39.77889119 46.68852599 -44.63058164 46.57078332 -50.2109375 46.68359375 C-55.57313139 47.29190986 -59.31968445 49.45971074 -63.25 53.0625 C-65.86409812 57.45045041 -67.40721467 62.16233817 -69 67 C-75.84456615 67.22593913 -82.29747006 66.35310558 -89.05078125 65.28515625 C-90.18654099 65.10995956 -91.32230072 64.93476288 -92.49247742 64.7542572 C-94.88059886 64.38466661 -97.26827398 64.01218179 -99.65551758 63.63696289 C-103.31686165 63.06181484 -106.97955618 62.49599372 -110.64257812 61.93164062 C-112.96623029 61.57085602 -115.28980099 61.20954628 -117.61328125 60.84765625 C-119.2585656 60.59291283 -119.2585656 60.59291283 -120.93708801 60.33302307 C-121.95211899 60.17293259 -122.96714996 60.0128421 -124.01293945 59.84790039 C-124.90592239 59.70800186 -125.79890533 59.56810333 -126.71894836 59.42396545 C-129 59 -129 59 -132 58 C-131.02507307 39.47638841 -121.86138302 23.92623033 -109 11 C-107.89591797 9.84371094 -107.89591797 9.84371094 -106.76953125 8.6640625 C-80.2986535 -17.31907713 -30.43149835 -20.04518351 0 0 Z M-75 144 C-79.76889449 150.0221156 -80.68262381 156.43452399 -80.35546875 163.94140625 C-79.72148847 169.39642341 -78.62469446 173.37530554 -74.625 177.375 C-69.06620188 180.81616074 -64.4898003 181.82410163 -58 181 C-47.04649413 178.01576311 -39.07351892 171.47232512 -33 162 C-28.25365256 153.05920598 -26.82465383 146.03369761 -27 136 C-52.28404591 134.53578318 -52.28404591 134.53578318 -75 144 Z " fill="#0A8ACB" transform="translate(1466,194)"/>
<path d="M0 0 C55.11 0 110.22 0 167 0 C167 19.14 167 38.28 167 58 C132.02 58 97.04 58 61 58 C61 86.71 61 115.42 61 145 C94 145 127 145 161 145 C161 164.14 161 183.28 161 203 C128 203 95 203 61 203 C61 247.55 61 292.1 61 338 C40.87 338 20.74 338 0 338 C0 226.46 0 114.92 0 0 Z " fill="#0A8ACB" transform="translate(1160,90)"/>
<path d="M0 0 C17.42540462 15.80922038 22.62602938 40.44140904 24 63 C24.13524588 68.67975089 24.12687058 74.35679535 24.11352539 80.0378418 C24.11324282 81.73402403 24.11340261 83.43020639 24.1139679 85.12638855 C24.11425315 89.69998234 24.10840057 94.27354956 24.10139394 98.84713721 C24.09511494 103.63839058 24.09455302 108.42964465 24.09336853 113.22090149 C24.09026857 122.27994543 24.08207327 131.3389772 24.07201904 140.3980158 C24.06081633 150.71729901 24.055337 161.03658282 24.05032361 171.3558706 C24.03988946 192.57058869 24.02156068 213.78529011 24 235 C3.87 235 -16.26 235 -37 235 C-37.02187378 227.49016357 -37.02187378 227.49016357 -37.04418945 219.82861328 C-37.09453333 203.28429104 -37.16097854 186.74006239 -37.23571491 170.19583321 C-37.28063322 160.1653969 -37.32005704 150.13499579 -37.34643555 140.10449219 C-37.36944773 131.35939081 -37.40288172 122.61440117 -37.44870156 113.86938846 C-37.47259035 109.24124881 -37.49134757 104.61321953 -37.49761391 99.98501968 C-37.50368444 95.62325677 -37.52375506 91.26177608 -37.55427551 86.90011787 C-37.56302428 85.30468141 -37.56678491 83.70920801 -37.56500816 82.11374855 C-37.55689601 71.46219136 -37.58101928 60.42154568 -45 52 C-50.22796374 47.94927749 -55.62773452 47.36019502 -62.109375 47.62890625 C-69.67989675 48.60079756 -74.39670162 52.55570902 -79.1796875 58.3515625 C-91.88500397 76.83698002 -89.47110774 103.14307882 -89.50611091 124.49988079 C-89.51562838 128.3982749 -89.54183992 132.29656016 -89.56611633 136.19488525 C-89.60942342 143.5430103 -89.63818826 150.8911138 -89.66143972 158.23932672 C-89.69380193 168.19291683 -89.74921457 178.14637868 -89.80318546 188.09987068 C-89.88735923 203.73320842 -89.94124267 219.36649817 -90 235 C-110.13 235 -130.26 235 -151 235 C-151 155.47 -151 75.94 -151 -6 C-130.87 -6 -110.74 -6 -90 -6 C-89.505 3.405 -89.505 3.405 -89 13 C-85.4007162 9.40197173 -85.4007162 9.40197173 -81.81640625 5.7890625 C-60.00828397 -15.14975855 -24.50787369 -17.79194274 0 0 Z " fill="#0A8ACB" transform="translate(1680,193)"/>
<path d="M0 0 C19.8 0 39.6 0 60 0 C60.01458252 4.90520508 60.02916504 9.81041016 60.04418945 14.86425781 C60.09456441 31.08526452 60.16101574 47.3061761 60.23571491 63.52708817 C60.28060611 73.36017024 60.32003608 83.19321664 60.34643555 93.02636719 C60.36946979 101.60082383 60.40292815 110.17516692 60.44870156 118.74953341 C60.47256078 123.28607517 60.49133727 127.82250499 60.49761391 132.35910797 C60.50369796 136.63715983 60.52381646 140.91492554 60.55427551 145.19287109 C60.56300286 146.75521603 60.56678944 148.31759844 60.56500816 149.87996674 C60.43416513 165.8793182 60.43416513 165.8793182 67 180 C67 180.66 67 181.32 67 182 C67.804375 182.4021875 67.804375 182.4021875 68.625 182.8125 C71 184 71 184 73.625 185.625 C79.32750521 187.94824286 85.22258681 187.77048177 91.125 186.0625 C99.15909466 182.57294373 103.7821199 174.56468313 106.9765625 166.79296875 C114.13090642 147.26870957 113.32892181 126.42126279 113.40471697 105.91448164 C113.42056001 102.17891588 113.44728016 98.44342656 113.4727478 94.70791626 C113.51916684 87.66430907 113.55608687 80.62068689 113.58942068 73.57700694 C113.63513012 64.03760374 113.69586543 54.49829623 113.75566864 44.95897293 C113.84923097 29.97269708 113.92302205 14.9863915 114 0 C133.8 0 153.6 0 174 0 C174.01981934 5.4459668 174.03963867 10.89193359 174.06005859 16.50292969 C174.12739844 34.63163466 174.20493493 52.76028588 174.28752708 70.88892746 C174.33728911 81.86474009 174.38373037 92.84054658 174.421875 103.81640625 C174.45519651 113.40187008 174.49523608 122.98728039 174.54279006 132.57268453 C174.56766418 137.63087855 174.58955154 142.68903892 174.60334396 147.74727631 C174.65809107 167.04381564 174.82878173 186.30452836 175.90087891 205.57519531 C175.93946038 206.28139684 175.97804185 206.98759837 176.01779246 207.71519995 C176.64418756 218.86593559 177.82912134 229.8766527 179 241 C159.53 241 140.06 241 120 241 C118.38462824 236.9615706 117.31063984 233.39787926 116.375 229.1875 C115.98441406 227.44533203 115.98441406 227.44533203 115.5859375 225.66796875 C115.39257812 224.78753906 115.19921875 223.90710938 115 223 C114.56171875 223.556875 114.1234375 224.11375 113.671875 224.6875 C105.70116375 234.27827451 96.0297507 240.66814485 84 244 C82.79730469 244.33644531 82.79730469 244.33644531 81.5703125 244.6796875 C64.31892394 248.60290048 44.93048072 246.9305316 29.62109375 237.80859375 C14.06028784 227.07140577 5.61810652 212.13842479 2.14210033 193.72821331 C0.21608605 182.55225057 -0.41857971 171.73417515 -0.34057617 160.41137695 C-0.3397269 158.6450502 -0.34021087 156.87872239 -0.34190369 155.11239624 C-0.34275338 150.384237 -0.32529682 145.65631292 -0.30418181 140.92820764 C-0.28524106 135.96217605 -0.28365103 130.99613721 -0.28010559 126.03007507 C-0.27083566 116.65605011 -0.24629137 107.28213195 -0.21605712 97.90815371 C-0.18235444 87.22353006 -0.16598748 76.5389009 -0.15097082 65.8542372 C-0.11973643 43.90275222 -0.06478871 21.95141336 0 0 Z " fill="#0AADEB" transform="translate(2151,188)"/>
<path d="M0 0 C1.70470459 -0.00833862 1.70470459 -0.00833862 3.44384766 -0.0168457 C24.49710374 0.16250707 43.51332768 7.2272627 58.9140625 21.85546875 C70.00788321 33.52438719 77.00690189 47.12173798 81.5625 62.4375 C81.90800903 63.56949829 81.90800903 63.56949829 82.26049805 64.72436523 C89.39091557 90.53778501 87.25 116.73928906 87.25 143.3125 C46.66 143.3125 6.07 143.3125 -35.75 143.3125 C-31.28286923 159.49505804 -31.28286923 159.49505804 -21.75 172.3125 C-21.75 172.9725 -21.75 173.6325 -21.75 174.3125 C-20.7909375 174.6528125 -20.7909375 174.6528125 -19.8125 175 C-17.19452862 176.12198773 -14.93951208 177.36417321 -12.5 178.8125 C2.34093196 187.07370843 20.58854637 183.37765659 36.25 179.3125 C45.24959957 176.58480282 53.51563088 172.3016524 61.640625 167.6328125 C64.25 166.3125 64.25 166.3125 67.25 166.3125 C69.04693298 171.55932988 70.84338333 176.80632467 72.6394043 182.0534668 C73.24930063 183.83508673 73.85932431 185.61666307 74.46948242 187.39819336 C75.35109142 189.9723763 76.23222841 192.54672041 77.11328125 195.12109375 C77.51659416 196.29822182 77.51659416 196.29822182 77.92805481 197.49913025 C78.44660724 199.01486415 78.96304874 200.53132214 79.47720337 202.04855347 C80.0127697 203.61752193 80.55854813 205.1830274 81.11239624 206.74563599 C81.38750031 207.53477386 81.66260437 208.32391174 81.94604492 209.13696289 C82.32124519 210.19591515 82.32124519 210.19591515 82.70402527 211.27626038 C83.25 213.3125 83.25 213.3125 83.25 217.3125 C69.01456947 225.24235606 55.0267414 232.07717685 39.25 236.3125 C38.55874023 236.50166992 37.86748047 236.69083984 37.15527344 236.88574219 C9.42623794 244.08185867 -22.0360914 240.15873007 -46.84399414 226.09863281 C-69.83891533 212.30671365 -83.51646676 188.46649352 -90.9375 163.375 C-100.78900548 123.72165997 -98.35337783 76.41145011 -77.015625 40.69921875 C-64.06257149 20.72126947 -45.26910483 7.20676557 -22.125 1.5 C-14.76527277 0.1478998 -7.47180839 0.03087524 0 0 Z M-23.75 65.3125 C-29.77846128 73.382011 -34.75 82.04932546 -34.75 92.3125 C-13.63 92.3125 7.49 92.3125 29.25 92.3125 C28.11533419 79.83117613 26.2154959 69.36097492 16.51953125 60.78125 C3.74499427 51.08049785 -12.96455108 54.18344386 -23.75 65.3125 Z " fill="#0AADEB" transform="translate(745.75,185.6875)"/>
<path d="M0 0 C1.38638672 0.433125 1.38638672 0.433125 2.80078125 0.875 C19.70414264 6.7635738 32.3041008 21.3313707 40 37 C46.26392498 51.12111312 48.13469388 65.12583662 48.17358398 80.40942383 C48.180271 81.5166832 48.18695801 82.62394257 48.19384766 83.76475525 C48.20784146 86.15944662 48.21975327 88.55415088 48.22979546 90.94886208 C48.24635503 94.76728007 48.26960605 98.58560548 48.29469299 102.40397644 C48.36499819 113.25828337 48.42501451 124.1126304 48.47680664 134.96704102 C48.50865001 141.62356303 48.55045052 148.27996949 48.59700203 154.93640709 C48.61276738 157.44476098 48.62520223 159.95313855 48.63390923 162.46152687 C48.6878696 177.80489898 49.2553459 193.00851211 50.47816467 208.30497742 C51.06734709 215.86404709 51.52704806 223.43276888 52 231 C33.19 231 14.38 231 -5 231 C-6.46925302 227.32686744 -7.41678666 224.48150002 -8.125 220.6875 C-8.29257812 219.80449219 -8.46015625 218.92148437 -8.6328125 218.01171875 C-8.75398437 217.34785156 -8.87515625 216.68398438 -9 216 C-9.94875 216.845625 -10.8975 217.69125 -11.875 218.5625 C-29.5513052 233.52208763 -47.39252302 236.43889546 -70 235 C-74.59835201 234.33781397 -78.76431429 232.89647706 -83 231 C-83.71285156 230.72285156 -84.42570313 230.44570313 -85.16015625 230.16015625 C-99.22455735 224.09261144 -107.72939046 211.91010504 -113.71484375 198.375 C-122.01333441 176.58200325 -121.49025296 149.50576977 -112.50390625 127.9921875 C-104.8516783 112.76723527 -92.29425685 101.40504324 -76.21630859 95.83959961 C-58.83772929 90.25377707 -27.1834438 85.4082781 -10 94 C-10.0817882 90.18668156 -10.19454615 86.3748576 -10.3125 82.5625 C-10.33505859 81.49322266 -10.35761719 80.42394531 -10.38085938 79.32226562 C-10.69935193 69.85435047 -11.94335489 61.73588852 -19 55 C-24.92899822 51.5794241 -30.55774642 50.8570114 -37.140625 52.55078125 C-43.43633431 55.08588557 -46.2207049 60.03425191 -49 66 C-49.67903355 67.99583513 -50.34722643 69.99542246 -51 72 C-70.7111175 69.24724049 -90.3920953 66.42535481 -110 63 C-108.3125135 42.5489714 -98.81001168 25.86465174 -83.2734375 12.6875 C-60.05881429 -4.9743459 -27.53114375 -9.47308172 0 0 Z M-58 148 C-61.35108045 153.1941747 -61.63134183 159.97970471 -61 166 C-59.78930218 170.8962044 -58.14713593 174.91927045 -54 178 C-48.49383816 180.82022923 -42.8928418 180.23301309 -37 179 C-25.1434144 174.69164767 -18.29844124 167.3225088 -13 156 C-10.77749972 149.56809991 -9.85623649 143.80762527 -10 137 C-14.10402717 136.91167804 -18.20780456 136.85916952 -22.3125 136.8125 C-23.46041016 136.78736328 -24.60832031 136.76222656 -25.79101562 136.73632812 C-37.88226591 136.63356962 -49.67250978 138.51591392 -58 148 Z " fill="#0AADEB" transform="translate(972,190)"/>
<path d="M0 0 C1.10480713 0.28206299 1.10480713 0.28206299 2.23193359 0.56982422 C13.95642431 3.64209539 30.21699494 8.21699494 39 17 C38.60540756 23.95996065 36.45257396 29.96818292 34.03515625 36.46484375 C33.44510048 38.07571617 33.44510048 38.07571617 32.84312439 39.71913147 C32.01423301 41.97549812 31.18111046 44.23031445 30.34399414 46.48364258 C29.05919219 49.94641513 27.79143372 53.41509669 26.52539062 56.88476562 C25.71715113 59.07849565 24.90794065 61.27186822 24.09765625 63.46484375 C23.71738785 64.50640121 23.33711945 65.54795868 22.94532776 66.62107849 C22.58833298 67.57619827 22.2313382 68.53131805 21.86352539 69.51538086 C21.55121475 70.35951035 21.23890411 71.20363983 20.91712952 72.073349 C20 74 20 74 18 75 C16.07755709 73.93568224 14.21206486 72.76821627 12.375 71.5625 C-3.64391894 61.36389425 -18.61519092 54.44101006 -38 56 C-41.03376787 56.69496004 -43.18763371 57.59381686 -46 59 C-46.78375 59.28875 -47.5675 59.5775 -48.375 59.875 C-50.86966247 61.60207401 -51.25029548 63.06365731 -52 66 C-52.42699233 70.90151607 -52.62267712 75.67258276 -50 80 C-48.69201193 80.71511497 -47.35097386 81.36984776 -46 82 C-45.0409375 82.51433594 -44.081875 83.02867187 -43.09375 83.55859375 C-34.25840811 88.21825979 -25.19499225 91.97405707 -15.875 95.5625 C-1.25662286 101.21759495 11.81986349 106.88027581 24 117 C24.98226563 117.81017578 24.98226563 117.81017578 25.984375 118.63671875 C36.94686213 128.61861643 44.41206513 143.80953795 45.125 158.59179688 C45.80321172 184.38079753 41.8212131 206.06689109 23.578125 225.58203125 C3.56424635 244.3526235 -22.90995711 248.85296287 -49.41455078 248.10498047 C-75.88990818 247.02996596 -100.61367484 236.10283436 -119.8046875 217.921875 C-121 216 -121 216 -120.71949768 213.69648743 C-119.97161048 210.89360357 -118.96659132 208.53440232 -117.68334961 205.93432617 C-117.20292709 204.95368698 -116.72250458 203.97304779 -116.2275238 202.96269226 C-115.70771439 201.9166835 -115.18790497 200.87067474 -114.65234375 199.79296875 C-114.12105362 198.71243729 -113.58976349 197.63190582 -113.04237366 196.51863098 C-111.34621969 193.0721933 -109.64197691 189.62982786 -107.9375 186.1875 C-106.78527184 183.84987323 -105.63357272 181.5119856 -104.48242188 179.17382812 C-101.66107711 173.44617911 -98.83308283 167.72185127 -96 162 C-91.86459311 162 -90.61789954 163.70075427 -87.4375 166.3125 C-71.31146762 179.12378838 -53.30244707 190.51580309 -32 189 C-26.54089975 187.8869001 -21.94081529 186.06023393 -18 182 C-15.41934752 177.69891254 -15.23424326 172.8715163 -16 168 C-18.85958215 160.36519329 -24.8354598 156.40451206 -31.97900391 153.07861328 C-39.85611463 149.5611393 -47.87887726 146.41150068 -55.94335938 143.35351562 C-72.78546829 136.94794418 -89.78680175 129.74380223 -101 115 C-101.78310547 114.02160156 -101.78310547 114.02160156 -102.58203125 113.0234375 C-114.28581835 97.20110254 -115.16746985 74.7345907 -112.3515625 55.9140625 C-108.81547111 36.76712611 -98.63460651 20.64454608 -82.6640625 9.34765625 C-59.03917536 -5.67593703 -26.60683225 -7.10770464 0 0 Z " fill="#0A8ACB" transform="translate(1843,185)"/>
<path d="M0 0 C19.14 0 38.28 0 58 0 C58.01458252 8.20302979 58.02916504 16.40605957 58.04418945 24.85766602 C58.09294656 51.10385438 58.15635556 77.3499877 58.22898628 103.59612021 C58.24025445 107.67288517 58.2513929 111.74965048 58.26245117 115.82641602 C58.26465486 116.63802706 58.26685854 117.44963811 58.269129 118.28584342 C58.30450197 131.42755279 58.32936611 144.56926209 58.35034702 157.7110014 C58.37210908 171.19551129 58.40516335 184.6799594 58.44870156 198.16441673 C58.47521131 206.48513832 58.49291166 214.80578292 58.49934604 223.12654465 C58.504602 228.83230388 58.52082594 234.53796625 58.54566566 240.24367357 C58.55967365 243.53565664 58.56722845 246.82743198 58.56500816 250.11944962 C58.56335992 253.69051873 58.58001742 257.26105094 58.60127258 260.83204651 C58.59642501 261.86999456 58.59157743 262.9079426 58.58658296 263.97734362 C58.64325662 269.73920149 59.13095781 273.94899663 62 279 C65.70842066 281.47228044 68.69872517 281.56103585 73 281 C76.30101131 279.60075055 76.30101131 279.60075055 79 278 C79.66 278 80.32 278 81 278 C82.46663401 284.36788748 83.69835965 290.73304773 84.76171875 297.1796875 C84.91663284 298.11426788 85.07154694 299.04884827 85.2311554 300.01174927 C85.55437112 301.96951249 85.87614587 303.92751411 86.1965332 305.88574219 C86.689731 308.88858345 87.1934167 311.88955495 87.69726562 314.890625 C88.01106271 316.79937307 88.32423618 318.70822379 88.63671875 320.6171875 C88.8647242 321.96247025 88.8647242 321.96247025 89.09733582 323.33493042 C89.23110123 324.16654694 89.36486664 324.99816345 89.50268555 325.85498047 C89.623228 326.58506317 89.74377045 327.31514587 89.8679657 328.06735229 C90 330 90 330 89 333 C86.52488722 334.01473602 84.18209672 334.82154967 81.625 335.5625 C80.62533203 335.87477539 80.62533203 335.87477539 79.60546875 336.19335938 C61.74040974 341.57989418 40.51138311 343.47143199 23.50390625 334.71484375 C12.19700452 327.86968739 5.67790702 317.36597819 2.09327221 304.82872009 C-0.68458027 291.78892889 -0.40943745 278.7368294 -0.34819686 265.45639706 C-0.33509521 261.88473066 -0.33963581 258.31307775 -0.34190369 254.74139404 C-0.34346761 248.57125916 -0.33415143 242.40122034 -0.31719017 236.23110962 C-0.29268399 227.31046605 -0.2849831 218.38986835 -0.2812262 209.46919477 C-0.27467981 194.99180673 -0.25476818 180.51446974 -0.22631836 166.03710938 C-0.19873064 151.98372653 -0.1775202 137.93035762 -0.16479492 123.87695312 C-0.16400675 123.00895399 -0.16321858 122.14095486 -0.16240653 121.24665272 C-0.15849107 116.89163415 -0.15470003 112.53661549 -0.15097082 108.18159676 C-0.11993143 72.12101914 -0.06465908 36.06053608 0 0 Z " fill="#0AADEB" transform="translate(1058,85)"/>
<path d="M0 0 C-0.01160156 1.22074219 -0.02320313 2.44148438 -0.03515625 3.69921875 C-0.23618953 33.14909402 5.30528632 59.57738889 24 83 C25.17552665 84.54048432 26.35091191 86.08107817 27.52416992 87.62329102 C32.54088685 94.20101784 37.72790306 100.62487568 43 107 C46.01021787 110.65840347 49.00852376 114.32625725 52 118 C52.70261963 118.85899902 52.70261963 118.85899902 53.41943359 119.73535156 C71.71124289 142.13372867 71.71124289 142.13372867 74 149 C72.02 149.99 72.02 149.99 70 151 C70 151.66 70 152.32 70 153 C68.65478516 154.23681641 68.65478516 154.23681641 66.7890625 155.6015625 C66.12132812 156.09140625 65.45359375 156.58125 64.765625 157.0859375 C64.05921875 157.59382812 63.3528125 158.10171875 62.625 158.625 C61.57699219 159.3984375 61.57699219 159.3984375 60.5078125 160.1875 C55.26310351 164 55.26310351 164 53 164 C53 164.66 53 165.32 53 166 C52.34 166.66 51.68 167.32 51 168 C51.58910156 168.60328125 52.17820312 169.2065625 52.78515625 169.828125 C53.53667969 170.62734375 54.28820312 171.4265625 55.0625 172.25 C55.81660156 173.03890625 56.57070312 173.8278125 57.34765625 174.640625 C59 177 59 177 59.0703125 178.98046875 C55.03984981 186.58539288 45.19921846 192.7610558 38.5 198.0625 C37.91323486 198.5272876 37.32646973 198.9920752 36.72192383 199.47094727 C33.933516 201.6384562 31.24933667 203.5903613 28 205 C28 205.99 28 206.98 28 208 C24.02361267 205.1281647 21.48469141 202.23317796 19 198 C19 197.34 19 196.68 19 196 C18.11634766 195.63648438 18.11634766 195.63648438 17.21484375 195.265625 C14.59007563 193.7657575 13.34994848 192.17729724 11.5625 189.75 C8.8041055 186.07015906 5.9702399 182.51028352 3 179 C3.62110177 181.98841922 4.3141721 183.49779502 6.01171875 186.1875 C9.40482598 192.86589898 8.82723397 200.68068881 8.8125 208 C8.81535004 208.79768799 8.81820007 209.59537598 8.82113647 210.41723633 C8.79814807 224.42647527 6.20949367 235.96808611 0.09814453 248.67822266 C-0.87994401 250.74616887 -1.73627641 252.8071489 -2.53515625 254.94921875 C-4.5131184 260.22166448 -6.21272224 264.69449869 -11 268 C-15.13784903 269.27897152 -17.07487462 269.44328925 -21 267.5625 C-28.65425326 261.024492 -28.65425326 261.024492 -31 257 C-30.84270537 252.26460378 -28.23053975 247.91280202 -26.25 243.6875 C-18.79029302 227.37388906 -12.02044594 208.67878172 -17.5625 190.75 C-21.08727908 181.59053886 -26.50964165 173.56678581 -32.1796875 165.62109375 C-50.46975558 139.28496568 -59.46965829 111.03211516 -54 79 C-53.03072388 73.87811745 -51.65718429 68.94258111 -50 64 C-49.65195313 62.93136719 -49.30390625 61.86273438 -48.9453125 60.76171875 C-45.70634361 51.61442385 -41.02640937 43.26881649 -36 35 C-35.63793457 34.40429199 -35.27586914 33.80858398 -34.90283203 33.19482422 C-33.99356712 31.75792478 -33.00354448 30.37271306 -32 29 C-31.34 29 -30.68 29 -30 29 C-29.78214844 28.30390625 -29.56429687 27.6078125 -29.33984375 26.890625 C-27.65946096 23.26530937 -25.27559982 20.62266883 -22.5625 17.75 C-22.03406494 17.18369873 -21.50562988 16.61739746 -20.96118164 16.03393555 C-5.71226685 0 -5.71226685 0 0 0 Z " fill="#549FFE" transform="translate(131,101)"/>
<path d="M0 0 C33 0 66 0 100 0 C100 16.9126506 100 16.9126506 97.75 22.9375 C97.51966064 23.56100342 97.28932129 24.18450684 97.05200195 24.8269043 C96.39763599 26.56273192 95.70049333 28.28226852 95 30 C94.68933594 30.78117187 94.37867188 31.56234375 94.05859375 32.3671875 C90.52829168 40.25100108 84.28563388 47.18578866 78 53 C77.49855469 53.51820313 76.99710937 54.03640625 76.48046875 54.5703125 C64.21543091 66.48797454 46.02903142 72.14625542 29.23852539 72.11352539 C27.93770523 72.11344986 26.63688507 72.11337433 25.29664612 72.11329651 C23.89698243 72.10819141 22.49731914 72.10297544 21.09765625 72.09765625 C19.65034535 72.09578866 18.20303381 72.09436637 16.75572205 72.09336853 C12.9664024 72.08957018 9.17712174 72.0797631 5.38781738 72.06866455 C1.51310758 72.05839247 -2.3616086 72.05385854 -6.23632812 72.04882812 C-13.82423643 72.03813816 -21.41211273 72.02109434 -29 72 C-29 71.67 -29 71.34 -29 71 C-19.43 71 -9.86 71 0 71 C0 47.57 0 24.14 0 0 Z " fill="#29BAFE" transform="translate(291,104)"/>
<path d="M0 0 C3.77762917 1.12106857 6.64211047 2.14544546 9.5625 4.8125 C10.44421875 5.61494141 10.44421875 5.61494141 11.34375 6.43359375 C11.8903125 6.95050781 12.436875 7.46742188 13 8 C14.2684375 9.175625 14.2684375 9.175625 15.5625 10.375 C18.67108926 13.72271151 21.35786808 17.27804025 24 21 C24.556875 21.78375 25.11375 22.5675 25.6875 23.375 C32.18907903 36.37815805 30.31617625 48.42004928 26.57763672 61.90039062 C25.60887238 65.4216811 24.70963312 68.95991604 23.8125 72.5 C23.48894531 73.7478125 23.16539063 74.995625 22.83203125 76.28125 C22.21165754 79.0540001 21.8480459 81.48616194 21.61328125 84.28515625 C21 88 21 88 19.4609375 89.77734375 C18.77257812 90.16019531 18.08421875 90.54304688 17.375 90.9375 C16.57964844 91.43378906 15.78429687 91.93007813 14.96484375 92.44140625 C12.65349562 93.65646278 10.48925657 94.5986908 8.06640625 95.52734375 C1.74156549 98.20187132 1.74156549 98.20187132 -3 103 C-4.89841675 110.79677271 -3.91178874 119.10811779 -3 127 C-4.05912598 127.55929199 -4.05912598 127.55929199 -5.13964844 128.12988281 C-8.34714035 129.82908356 -11.54857475 131.53939864 -14.75 133.25 C-15.86117187 133.83652344 -16.97234375 134.42304688 -18.1171875 135.02734375 C-19.72207031 135.88779297 -19.72207031 135.88779297 -21.359375 136.765625 C-22.34389648 137.28930664 -23.32841797 137.81298828 -24.34277344 138.35253906 C-26.97708828 139.9857949 -28.91289615 141.72237215 -31 144 C-31.99 143.67 -32.98 143.34 -34 143 C-35.1111249 128.57483556 -35.23960109 115.14615334 -32 101 C-31.84289551 100.3080957 -31.68579102 99.61619141 -31.52392578 98.90332031 C-27.76952509 83.14308883 -20.75661698 68.16940642 -13.375 53.8125 C-10.50833616 48.21535587 -8.04526325 42.51253076 -5.6875 36.6875 C-5.34960449 35.86290283 -5.01170898 35.03830566 -4.66357422 34.1887207 C-1.22589947 25.53709419 0.32418251 17.74545192 0.125 8.4375 C0.11597656 7.61958984 0.10695312 6.80167969 0.09765625 5.95898438 C0.07442281 3.9725254 0.03856739 1.98622043 0 0 Z " fill="#4FA0FE" transform="translate(54,224)"/>
<path d="M0 0 C0 3 0 3 -1.87109375 5.05859375 C-2.71800781 5.84363281 -3.56492188 6.62867187 -4.4375 7.4375 C-22.98360931 25.53892122 -34.70555223 50.75081918 -35.29199219 76.81274414 C-35.38135384 87.70529094 -33.99519014 97.53705407 -31 108 C-30.58427734 109.48693359 -30.58427734 109.48693359 -30.16015625 111.00390625 C-25.96325264 123.98142846 -18.0282569 135.50436487 -9.56787109 146.03125 C-6.24141278 150.20822911 -2.99980881 154.45083048 0.25 158.6875 C0.92361572 159.55463623 1.59723145 160.42177246 2.29125977 161.31518555 C12.68063068 174.84693327 17.69155366 185.77222629 17.75 202.9375 C17.75802139 204.13777832 17.75802139 204.13777832 17.76620483 205.36230469 C17.77831807 219.41225877 15.22903382 230.9274473 9.09814453 243.67822266 C8.12005599 245.74616887 7.26372359 247.8071489 6.46484375 249.94921875 C4.4868816 255.22166448 2.78727776 259.69449869 -2 263 C-6.13784903 264.27897152 -8.07487462 264.44328925 -12 262.5625 C-19.65425326 256.024492 -19.65425326 256.024492 -22 252 C-21.84270537 247.26460378 -19.23053975 242.91280202 -17.25 238.6875 C-9.79029302 222.37388906 -3.02044594 203.67878172 -8.5625 185.75 C-12.08727908 176.59053886 -17.50964165 168.56678581 -23.1796875 160.62109375 C-41.46975558 134.28496568 -50.46965829 106.03211516 -45 74 C-44.03072388 68.87811745 -42.65718429 63.94258111 -41 59 C-40.65195313 57.93136719 -40.30390625 56.86273438 -39.9453125 55.76171875 C-36.70634361 46.61442385 -32.02640937 38.26881649 -27 30 C-26.63793457 29.40429199 -26.27586914 28.80858398 -25.90283203 28.19482422 C-24.99356712 26.75792478 -24.00354448 25.37271306 -23 24 C-22.34 24 -21.68 24 -21 24 C-20.78730469 23.30777344 -20.57460937 22.61554688 -20.35546875 21.90234375 C-18.59574341 18.13440159 -16.16080893 15.55305038 -13.3125 12.5625 C-12.77592773 11.98991455 -12.23935547 11.4173291 -11.68652344 10.82739258 C-7.99970793 6.9355688 -4.19974962 3.34070992 0 0 Z " fill="#555556" transform="translate(122,106)"/>
<path d="M0 0 C0.66 0 1.32 0 2 0 C2 0.99 2 1.98 2 3 C2.58950439 3.26570801 3.17900879 3.53141602 3.78637695 3.80517578 C7.51542524 5.81796527 10.2188716 8.89117902 13.1875 11.875 C13.82880859 12.50019531 14.47011719 13.12539063 15.13085938 13.76953125 C16.04641602 14.68412109 16.04641602 14.68412109 16.98046875 15.6171875 C17.53629639 16.17003418 18.09212402 16.72288086 18.66479492 17.29248047 C20 19 20 19 20.5012207 21.14892578 C20.66581787 21.75978027 20.83041504 22.37063477 21 23 C21.99 23.33 22.98 23.66 24 24 C25.58281204 26.07781131 26.99159934 28.10787743 28.375 30.3125 C28.77275635 30.93898438 29.1705127 31.56546875 29.58032227 32.2109375 C33.08478473 37.8718273 35.75670592 43.72958764 38 50 C38.3609375 50.886875 38.721875 51.77375 39.09375 52.6875 C41.93849093 63.08551857 41.74130006 75.92916931 37.0625 85.6875 C30.04898587 97.47527375 21.10428095 107.33858364 9 114 C8.34 114 7.68 114 7 114 C7 112.68 7 111.36 7 110 C6.4534375 109.94457031 5.906875 109.88914062 5.34375 109.83203125 C1.96108757 108.63118609 -0.08257719 106.23336899 -2.5 103.6875 C-3.20962891 102.95756836 -3.20962891 102.95756836 -3.93359375 102.21289062 C-5.2937698 100.81315267 -6.64702321 99.40669793 -8 98 C-9.33000418 96.6633458 -10.66194137 95.32859123 -12 94 C-11.23816406 93.30777344 -11.23816406 93.30777344 -10.4609375 92.6015625 C-3.26573525 85.78363677 1.4017326 78.19557225 5 69 C4.44183594 68.76925781 3.88367188 68.53851563 3.30859375 68.30078125 C0.38710799 66.65466491 -1.60054666 64.58926868 -3.9375 62.1875 C-4.77152344 61.33542969 -5.60554687 60.48335938 -6.46484375 59.60546875 C-7.30144531 58.74566406 -8.13804687 57.88585937 -9 57 C-10.66424946 55.33091963 -12.33051087 53.66383942 -14 52 C-16 50 -16 50 -16.3125 47.875 C-15.96918741 44.71652419 -15.04949609 42.33221354 -13.75390625 39.453125 C-13.0531429 37.17292094 -12.84786663 35.36527044 -12.67578125 33.00390625 C-12.06781042 26.86875604 -9.8388847 21.40086385 -7.625 15.6875 C-7.02558594 14.08165039 -7.02558594 14.08165039 -6.4140625 12.44335938 C-2.92716836 3.28452723 -2.92716836 3.28452723 0 0 Z M-15 96 C-13 97 -13 97 -13 97 Z " fill="#09A6F3" transform="translate(141,324)"/>
<path d="M0 0 C0 3.16288537 -0.81204711 5.28612903 -1.98193359 8.18725586 C-14.89631661 40.26063095 -7.74280115 74.84871745 -3 108 C-2.24332031 107.36578125 -1.48664063 106.7315625 -0.70703125 106.078125 C2.14449638 103.88907349 4.56154362 102.95956922 8 102 C11.41242807 107.1186421 11.1292186 113.01059775 11.31640625 119.02734375 C11.35830078 120.31318359 11.40019531 121.59902344 11.44335938 122.92382812 C11.483157 124.26171625 11.52286951 125.59960691 11.5625 126.9375 C11.60576654 128.30274562 11.64938321 129.66798018 11.69335938 131.03320312 C11.79901153 134.35537652 11.90111395 137.67761946 12 141 C13.65 137.7 15.3 134.4 17 131 C18 134 18 134 17.35546875 135.98828125 C6.03185581 158.52189228 -11.86853054 176.1980899 -35.99609375 184.375 C-52.22228808 189.68018242 -67.19266805 189.11517842 -84 188 C-84 187.67 -84 187.34 -84 187 C-83.1028125 186.87625 -82.205625 186.7525 -81.28125 186.625 C-67.67028369 184.3752535 -55.57965721 178.96801409 -45 170 C-43.989375 169.2575 -42.97875 168.515 -41.9375 167.75 C-28.28839476 156.05603686 -21.30728983 134.99067046 -19.4921875 117.5546875 C-19 114 -19 114 -17 112 C-17.33 111.67 -17.66 111.34 -18 111 C-18.21267742 108.41242474 -18.3767855 105.84206806 -18.5 103.25 C-18.70852814 97.93424691 -18.70852814 97.93424691 -19.50488281 92.6862793 C-24.51862496 65.48400869 -20.31096011 29.2743013 -5 6 C-3.41734697 3.87733413 -1.79417107 1.95248029 0 0 Z " fill="#4F93D2" transform="translate(206,259)"/>
<path d="M0 0 C0.14695312 0.94359375 0.14695312 0.94359375 0.296875 1.90625 C1.35486424 7.96232635 3.1030111 12.59228739 6 18 C6 18.66 6 19.32 6 20 C6.66 20 7.32 20 8 20 C8.66 21.65 9.32 23.3 10 25 C10.66 25 11.32 25 12 25 C12.495 26.98 12.495 26.98 13 29 C13.66 29 14.32 29 15 29 C15.99 31.475 15.99 31.475 17 34 C17.66 34 18.32 34 19 34 C20.32421875 35.390625 20.32421875 35.390625 21.6875 37.25 C22.14511719 37.85328125 22.60273437 38.4565625 23.07421875 39.078125 C24 41 24 41 23.75683594 42.99682617 C22.43400954 46.49804894 18.76474005 47.51940052 15.5625 49.0625 C8.83169457 52.4507522 2.3463394 56.09775861 -4.0625 60.0625 C-5.24960571 60.79641968 -5.24960571 60.79641968 -6.46069336 61.54516602 C-8.30969201 62.69265757 -10.15525351 63.84568494 -12 65 C-11.34 66.65 -10.68 68.3 -10 70 C-12.11430198 71.44017671 -14.23751307 72.86196252 -16.37890625 74.26171875 C-18.08094673 75.39049373 -19.75795978 76.55830208 -21.40234375 77.76953125 C-27.16868802 81.76017793 -31.09526363 82.53742092 -38.04296875 81.625 C-39.01878906 81.41875 -39.99460937 81.2125 -41 81 C-42.21558594 80.79503906 -43.43117188 80.59007812 -44.68359375 80.37890625 C-48 79 -48 79 -49.7421875 75.83984375 C-50.15319379 74.54922739 -50.52955768 73.24718942 -50.875 71.9375 C-51.06989014 71.26082275 -51.26478027 70.58414551 -51.46557617 69.88696289 C-52.01012012 67.93356029 -52.50628506 65.96686436 -53 64 C-53.26683594 63.0821875 -53.53367187 62.164375 -53.80859375 61.21875 C-54.3125 58.9375 -54.3125 58.9375 -54 55 C-49.06658357 49.80625844 -41.85717461 46.49275368 -35.625 43.125 C-34.72394531 42.62742187 -33.82289062 42.12984375 -32.89453125 41.6171875 C-26.26633328 38 -26.26633328 38 -24 38 C-24.33 37.01 -24.66 36.02 -25 35 C-27.38228704 17.16111165 -27.38228704 17.16111165 -22.96875 11.3046875 C-20.05717945 9.50587236 -17.1794485 8.26180767 -14 7 C-11.79580845 5.71572896 -9.60767938 4.40344518 -7.4375 3.0625 C-2.26153846 0 -2.26153846 0 0 0 Z " fill="#02A7F1" transform="translate(75,313)"/>
<path d="M0 0 C0.53625 0.680625 1.0725 1.36125 1.625 2.0625 C2.800625 3.5165625 2.800625 3.5165625 4 5 C4.48210937 5.60070312 4.96421875 6.20140625 5.4609375 6.8203125 C5.96882813 7.43648438 6.47671875 8.05265625 7 8.6875 C7.474375 9.26886719 7.94875 9.85023438 8.4375 10.44921875 C10.20200252 12.20048751 11.68057859 13.11237527 14 14 C18.10722806 13.70662657 21.45016943 13.12989834 25 11 C23.54079579 16.16333797 21.23073781 20.26999098 18.375 24.75 C17.70295532 25.80670898 17.70295532 25.80670898 17.01733398 26.88476562 C7.9613442 40.94143979 -3.59388512 53.17082198 -20.41015625 57.640625 C-35.85590515 59.78392651 -48.53635697 56.37798383 -61 47 C-62.19586441 45.88467339 -63.3676529 44.74226065 -64.5 43.5625 C-65.325 42.716875 -66.15 41.87125 -67 41 C-67.99 41 -68.98 41 -70 41 C-70.33 39.68 -70.66 38.36 -71 37 C-69.85144531 37.2371875 -68.70289062 37.474375 -67.51953125 37.71875 C-59.31336589 39.16929451 -52.85320749 40.17277461 -45.6875 35.3125 C-43.77129341 33.90227215 -41.87334543 32.46668578 -40 31 C-38.34786346 29.97617257 -36.68585797 28.96729556 -35 28 C-35.66 26.02 -36.32 24.04 -37 22 C-33.43881711 19.9768392 -29.87597561 17.95661968 -26.3125 15.9375 C-25.26497559 15.34348389 -24.21745117 14.74946777 -23.13818359 14.13745117 C-16.52624643 10.39797998 -9.88456949 6.7511814 -3.1328125 3.26953125 C-0.86476193 2.17938419 -0.86476193 2.17938419 0 0 Z " fill="#2879FC" transform="translate(99,355)"/>
<path d="M0 0 C13.2 0 26.4 0 40 0 C40 21.68832736 36.79128336 40.93432383 21.15625 56.890625 C20.4446875 57.58671875 19.733125 58.2828125 19 59 C18.3915625 59.65484375 17.783125 60.3096875 17.15625 60.984375 C13.3433097 65.03995696 9.1427379 68.73010189 4 71 C3.34 70.67 2.68 70.34 2 70 C2.33 47.23 2.66 24.46 3 1 C2.01 0.67 1.02 0.34 0 0 Z " fill="#26B9FE" transform="translate(288,237)"/>
<path d="M0 0 C3.70317028 1.7025904 5.50349156 3.56021264 8 6.8125 C8.66 7.66457031 9.32 8.51664062 10 9.39453125 C10.99 10.68423828 10.99 10.68423828 12 12 C13.90527112 14.45229232 15.75956924 16.76572199 17.984375 18.93359375 C20.43535663 21.44632491 22.28530742 24.15433094 24.25 27.0625 C27.07988713 31.24212458 29.98620335 35.30785348 33.0625 39.3125 C43.743498 53.98560063 50.72815799 72.05244811 53 90 C53 86.7 53 83.4 53 80 C53.66 80 54.32 80 55 80 C55 78.35 55 76.7 55 75 C55.33 75 55.66 75 56 75 C56 80.28 56 85.56 56 91 C56.99 91.495 56.99 91.495 58 92 C57.690625 92.57057129 57.38125 93.14114258 57.0625 93.72900391 C56.01302651 95.97215703 55.47470584 97.91313639 55 100.3359375 C54.835 101.15320313 54.67 101.97046875 54.5 102.8125 C54.335 103.658125 54.17 104.50375 54 105.375 C52.94850626 110.71461666 51.87108862 115.87121245 50 121 C49.67 121 49.34 121 49 121 C48.98541748 120.44127197 48.97083496 119.88254395 48.95581055 119.30688477 C48.88039202 116.72479948 48.78405119 114.14387816 48.6875 111.5625 C48.65366211 110.24475586 48.65366211 110.24475586 48.61914062 108.90039062 C48.24171245 99.60193277 45.3053248 92.09038734 41.125 83.875 C40.63580078 82.87919922 40.63580078 82.87919922 40.13671875 81.86328125 C37.16293039 75.95041801 33.74923235 70.6366913 29 66 C27.95061054 64.79836751 26.9095304 63.58944874 25.875 62.375 C23.07689287 59.17206035 20.20894843 56.05533111 17.25 53 C16.51265625 52.236875 15.7753125 51.47375 15.015625 50.6875 C13.0547485 48.67903167 13.0547485 48.67903167 10 49 C10.33 47.68 10.66 46.36 11 45 C9.68 45.99 8.36 46.98 7 48 C7.00112793 47.00782471 7.00225586 46.01564941 7.00341797 44.9934082 C6.99969678 41.24854905 6.95645309 37.5049395 6.90234375 33.76049805 C6.88437548 32.15185701 6.87657979 30.54306416 6.87988281 28.93432617 C6.8937406 17.81691331 5.70951103 9.79969597 0 0 Z " fill="#247DFC" transform="translate(132,279)"/>
<path d="M0 0 C3 1 3 1 4.44140625 3.2109375 C5 6 5 6 3.40234375 8.7265625 C2.58894531 9.68304688 1.77554688 10.63953125 0.9375 11.625 C-3.48538971 17.10638067 -6.49843052 22.42244668 -9 29 C-9.43054688 30.0725 -9.86109375 31.145 -10.3046875 32.25 C-19.38558683 56.75230826 -17.33984972 83.3143321 -17 109 C-17.66 109 -18.32 109 -19 109 C-18.7525 110.2375 -18.7525 110.2375 -18.5 111.5 C-17.94103955 115.41272317 -17.93192813 119.05183173 -18 123 C-20.00071943 119.56416537 -20.54908662 116.34081936 -21.1875 112.4375 C-25.03015502 91.63540998 -34.81431993 74.26594139 -48 58 C-47.67 57.34 -47.34 56.68 -47 56 C-46.67 56 -46.34 56 -46 56 C-37.29881496 52.29611718 -30.02272432 44.22501121 -23 38 C-21.50079951 36.68658683 -20.00081382 35.37406934 -18.5 34.0625 C-17.8296875 33.47597656 -17.159375 32.88945312 -16.46875 32.28515625 C-15.9840625 31.86105469 -15.499375 31.43695313 -15 31 C-15.58536753 27.33939179 -17.083239 25.45464836 -19.5625 22.75 C-20.20316406 22.04359375 -20.84382813 21.3371875 -21.50390625 20.609375 C-21.99761719 20.07828125 -22.49132812 19.5471875 -23 19 C-22.67 18.34 -22.34 17.68 -22 17 C-21.34 17 -20.68 17 -20 17 C-20 16.34 -20 15.68 -20 15 C-17.76246465 13.22356837 -15.52777227 11.56762068 -13.1875 9.9375 C-12.54490234 9.47794922 -11.90230469 9.01839844 -11.24023438 8.54492188 C-8.4570241 6.58081183 -6.26197136 5.08732379 -3 4 C-3 3.34 -3 2.68 -3 2 C-2.01 1.34 -1.02 0.68 0 0 Z " fill="#07ABF4" transform="translate(204,250)"/>
<path d="M0 0 C2.58335023 1.90943278 2.99213536 2.95669629 3.57788086 6.18188477 C3.97916844 9.81157619 4.20287596 13.37815587 4.31640625 17.02734375 C4.35830078 18.31318359 4.40019531 19.59902344 4.44335938 20.92382812 C4.483157 22.26171625 4.52286951 23.59960691 4.5625 24.9375 C4.60576654 26.30274562 4.64938321 27.66798018 4.69335938 29.03320312 C4.79901153 32.35537652 4.90111395 35.67761946 5 39 C6.65 35.7 8.3 32.4 10 29 C11 32 11 32 10.35546875 33.98828125 C-0.96814419 56.52189228 -18.86853054 74.1980899 -42.99609375 82.375 C-51.47838763 85.14830072 -59.4250063 87.16376397 -68.4375 87.0625 C-69.48808594 87.05347656 -70.53867188 87.04445313 -71.62109375 87.03515625 C-72.79865234 87.01775391 -72.79865234 87.01775391 -74 87 C-74 86.01 -74 85.02 -74 84 C-72.06060547 83.65388672 -72.06060547 83.65388672 -70.08203125 83.30078125 C-52.8714619 80.12408339 -34.47004416 75.56429219 -23.26171875 60.85546875 C-22.63716797 59.93701172 -22.63716797 59.93701172 -22 59 C-21.49082031 58.27425781 -20.98164063 57.54851562 -20.45703125 56.80078125 C-13.88197885 46.71903424 -11.06960274 35.38086465 -10.859375 23.42578125 C-10.83037109 21.93014648 -10.83037109 21.93014648 -10.80078125 20.40429688 C-10.76673788 18.33157961 -10.74868338 16.25854208 -10.74609375 14.18554688 C-10.55954198 6.6203818 -10.55954198 6.6203818 -7.62890625 3.37109375 C-5.12318813 2.06424819 -2.67379342 0.91672917 0 0 Z " fill="#6AACFD" transform="translate(213,361)"/>
<path d="M0 0 C4.71253806 16.94929654 2.83393448 37.71224568 0.25 54.8125 C0.09313721 55.86655029 -0.06372559 56.92060059 -0.2253418 58.0065918 C-3.13536717 75.58816953 -3.13536717 75.58816953 -9 81 C-10.2048149 83.26027345 -10.2048149 83.26027345 -11.1875 85.6875 C-11.53167969 86.49574219 -11.87585938 87.30398438 -12.23046875 88.13671875 C-12.61138672 89.05904297 -12.61138672 89.05904297 -13 90 C-13.33 90 -13.66 90 -14 90 C-14.01458252 89.14470703 -14.02916504 88.28941406 -14.04418945 87.40820312 C-14.43561852 65.03806022 -14.43561852 65.03806022 -18 43 C-20.19718104 33.55308945 -20.19718104 33.55308945 -20 29 C-18.39544505 26.77830854 -16.69978479 25.41711048 -14.52734375 23.76171875 C-12.71212893 22.06812559 -12.71212893 22.06812559 -13.06640625 19.45703125 C-13.25074219 18.52246094 -13.43507812 17.58789062 -13.625 16.625 C-14.28141683 12.84799841 -14.39861535 11.58239256 -12.1953125 8.36328125 C-3.76469404 0 -3.76469404 0 0 0 Z M-20 48 C-19.01 48.33 -18.02 48.66 -17 49 C-18.98 49.99 -18.98 49.99 -21 51 C-21.33 50.34 -21.66 49.68 -22 49 C-21.34 48.67 -20.68 48.34 -20 48 Z " fill="#3191FE" transform="translate(231,312)"/>
<path d="M0 0 C2.28644624 2.07953346 3.55752299 3.83126668 4.68359375 6.703125 C4.96968506 7.42918945 5.25577637 8.15525391 5.55053711 8.90332031 C5.84323486 9.67772461 6.13593262 10.45212891 6.4375 11.25 C6.74244385 12.04760742 7.0473877 12.84521484 7.36157227 13.66699219 C15.20857849 34.63955886 15.20857849 34.63955886 14 42 C12.00468547 43.95429485 10.1490375 45.53016198 7.9375 47.1875 C3.4653324 50.70773251 3.4653324 50.70773251 1.671875 55.91015625 C2.01010284 57.77297169 2.3916943 59.62853969 2.8203125 61.47265625 C3 64 3 64 1.5546875 66.24609375 C-0.22185772 67.97735448 -1.99829065 69.53740439 -4 71 C-4.66 70.67 -5.32 70.34 -6 70 C-9.65854074 58.17963666 -10.38373514 44.91305053 -10.4375 32.625 C-10.4473291 31.61115234 -10.4571582 30.59730469 -10.46728516 29.55273438 C-10.36673494 20.74511864 -8.6641515 12.9340864 -3.875 5.4375 C-3.35679687 4.61121094 -2.83859375 3.78492188 -2.3046875 2.93359375 C-1 1 -1 1 0 0 Z " fill="#02A4EF" transform="translate(216,270)"/>
<path d="M0 0 C0.99 1.32 1.98 2.64 3 4 C1.948125 4.9590625 1.948125 4.9590625 0.875 5.9375 C-1.37477731 8.17470872 -3.05126379 10.51127871 -4.75 13.1875 C-9.85325596 21.04572704 -15.96891824 28.08301117 -24 33 C-24.66 33 -25.32 33 -26 33 C-26 33.66 -26 34.32 -26 35 C-27.58074564 35.81752303 -29.16471223 36.62881997 -30.75 37.4375 C-31.63171875 37.88996094 -32.5134375 38.34242188 -33.421875 38.80859375 C-38.61175859 41.20694905 -43.37400085 41.18300639 -49 41.1875 C-49.80695312 41.19974609 -50.61390625 41.21199219 -51.4453125 41.22460938 C-52.61707031 41.22750977 -52.61707031 41.22750977 -53.8125 41.23046875 C-54.52019531 41.23457764 -55.22789063 41.23868652 -55.95703125 41.24291992 C-58.31835067 40.9621464 -59.94392823 40.16578114 -62 39 C-60.783125 39.165 -59.56625 39.33 -58.3125 39.5 C-51.13993045 39.55683494 -45.70226237 34.86306116 -40 31 C-38.34029973 29.98847997 -36.67617606 28.98397743 -35 28 C-35.66 26.02 -36.32 24.04 -37 22 C-33.43881711 19.9768392 -29.87597561 17.95661968 -26.3125 15.9375 C-25.26497559 15.34348389 -24.21745117 14.74946777 -23.13818359 14.13745117 C-16.52624643 10.39797998 -9.88456949 6.7511814 -3.1328125 3.26953125 C-0.86476193 2.17938419 -0.86476193 2.17938419 0 0 Z " fill="#2598FD" transform="translate(99,355)"/>
<path d="M0 0 C0.18175781 1.12535156 0.36351562 2.25070312 0.55078125 3.41015625 C1.99784352 12.27401926 3.56528508 21.08125197 5.44921875 29.86328125 C5.94081005 32.66291112 6.1115762 35.16808971 6 38 C3.525 38.495 3.525 38.495 1 39 C0.67 39.99 0.34 40.98 0 42 C-1.95597184 43.39712274 -3.95436401 44.73779907 -6 46 C-6.71902987 40.87805954 -7.43085098 35.75518589 -8.13623047 30.63134766 C-8.37680071 28.89116912 -8.61928241 27.15125365 -8.86376953 25.41162109 C-9.21639068 22.90009496 -9.56195322 20.38767918 -9.90625 17.875 C-10.0156189 17.10696045 -10.12498779 16.3389209 -10.2376709 15.54760742 C-10.89973599 10.65232214 -11.09802206 5.94031178 -11 1 C-6.79018866 -0.66434402 -4.37219878 -1.06511827 0 0 Z " fill="#0A94E7" transform="translate(208,322)"/>
<path d="M0 0 C0 4.39931091 -1.92584828 8.13079292 -3.60351562 12.140625 C-7.40833475 21.76071088 -9.34561695 31.71619662 -8.9765625 42.03515625 C-8.95319321 42.69685822 -8.92982391 43.35856018 -8.90574646 44.04031372 C-8.7960216 46.73823506 -8.66746527 49.4325985 -8.48583984 52.12670898 C-8.20686608 56.53230027 -8.04452993 60.67655706 -9 65 C-11.16759859 67.10519682 -13.25108394 68.24368973 -15.93847656 69.6003418 C-18.1628061 70.82717185 -18.1628061 70.82717185 -18.83496094 73.12426758 C-19.10388536 75.58032733 -19.14715121 77.90633445 -19.0625 80.375 C-19.06958984 81.20644531 -19.07667969 82.03789062 -19.08398438 82.89453125 C-19.09568159 84.92984642 -19.05331893 86.96534972 -19 89 C-18.34 89.33 -17.68 89.66 -17 90 C-17.99 90 -18.98 90 -20 90 C-21.18906502 23.0586884 -21.18906502 23.0586884 0 0 Z " fill="#2A7CCF" transform="translate(206,259)"/>
<path d="M0 0 C0.99 0.33 1.98 0.66 3 1 C2.73155273 1.527146 2.46310547 2.05429199 2.18652344 2.59741211 C-0.6682795 8.54060453 -1.97025118 14.03981182 -2.75 20.5625 C-2.86996338 21.52849121 -2.98992676 22.49448242 -3.11352539 23.48974609 C-5.76661533 46.22674571 -2.20863864 65.58272271 8 86 C8.039992 87.99960012 8.04346799 90.00047242 8 92 C-6.9198894 74.09613272 -9.6617678 48.6004691 -7.65625 26.15234375 C-6.34343158 16.97355494 -3.84590716 8.42436807 0 0 Z " fill="#66AFED" transform="translate(94,146)"/>
<path d="M0 0 C0.66 0.33 1.32 0.66 2 1 C2 2.32 2 3.64 2 5 C-0.16015625 7.11328125 -0.16015625 7.11328125 -3.0625 9.3125 C-6.44174361 11.94943212 -9.66403813 14.52403994 -12.625 17.625 C-15.82801467 20.95985789 -19.36374635 23.68275979 -23.08203125 26.421875 C-25.23441194 28.03737765 -25.23441194 28.03737765 -27 31 C-26.34 31.99 -25.68 32.98 -25 34 C-25.375 36.1875 -25.375 36.1875 -26 38 C-28.93200474 35.14723863 -31.64315404 32.34920216 -34 29 C-33.67 28.34 -33.34 27.68 -33 27 C-32.67 27 -32.34 27 -32 27 C-24.01950353 23.60289677 -17.35625326 16.40241766 -10.921875 10.69921875 C-9.54593492 9.48268636 -8.15922836 8.27828868 -6.765625 7.08203125 C-6.03859375 6.45683594 -5.3115625 5.83164062 -4.5625 5.1875 C-3.90378906 4.62417969 -3.24507812 4.06085938 -2.56640625 3.48046875 C-0.88980014 2.06530792 -0.88980014 2.06530792 0 0 Z " fill="#1CABFE" transform="translate(190,279)"/>
<path d="M0 0 C0.59859631 7.66535834 -0.55689015 14.07923404 -4 21 C-4.99221825 22.00772166 -5.99215723 23.00790477 -7 24 C-8.2048149 26.26027345 -8.2048149 26.26027345 -9.1875 28.6875 C-9.70376953 29.89986328 -9.70376953 29.89986328 -10.23046875 31.13671875 C-10.61138672 32.05904297 -10.61138672 32.05904297 -11 33 C-11.33 33 -11.66 33 -12 33 C-12.125 25.375 -12.125 25.375 -11 22 C-10.34 22 -9.68 22 -9 22 C-8.93941406 21.10796875 -8.87882813 20.2159375 -8.81640625 19.296875 C-8.73261719 18.12640625 -8.64882812 16.9559375 -8.5625 15.75 C-8.48128906 14.58984375 -8.40007812 13.4296875 -8.31640625 12.234375 C-7.68056898 5.73470515 -7.68056898 5.73470515 -5.625 3.515625 C-1.11111111 0 -1.11111111 0 0 0 Z " fill="#6183FE" transform="translate(229,369)"/>
<path d="M0 0 C0.45986864 10.74730045 -0.86594261 20.50755115 -3 31 C-3.66 31 -4.32 31 -5 31 C-5.495 32.485 -5.495 32.485 -6 34 C-6.34297825 29.4606874 -6.61529844 24.91977732 -6.875 20.375 C-6.97296875 19.08980469 -7.0709375 17.80460937 -7.171875 16.48046875 C-7.65620472 7.13290507 -7.65620472 7.13290507 -5.70410156 3.76269531 C-2.00334362 0 -2.00334362 0 0 0 Z " fill="#448AFD" transform="translate(223,360)"/>
<path d="M0 0 C0.99 0.66 1.98 1.32 3 2 C1.97094497 4.73833289 1.262729 5.84092052 -1.27734375 7.37890625 C-2.15519531 7.76949219 -3.03304687 8.16007812 -3.9375 8.5625 C-7.54177733 10.11047207 -7.54177733 10.11047207 -10.4453125 12.6328125 C-12.81616935 14.71773687 -14.84672609 14.36216633 -17.9375 14.3125 C-18.97777344 14.30863281 -20.01804687 14.30476563 -21.08984375 14.30078125 C-23.91133812 14.00916371 -25.5973251 13.4531841 -28 12 C-26.783125 12.165 -25.56625 12.33 -24.3125 12.5 C-17.14200054 12.54538291 -11.67933931 7.90499115 -6 4 C-4.86976114 3.24288998 -3.73829882 2.48760238 -2.60546875 1.734375 C-1.74566406 1.16203125 -0.88585937 0.5896875 0 0 Z " fill="#13A1FD" transform="translate(65,382)"/>
<path d="M0 0 C-0.1015625 1.7578125 -0.1015625 1.7578125 -1 4 C-3.12000727 5.47504731 -5.10594398 6.67993217 -7.375 7.875 C-8.0026123 8.21942139 -8.63022461 8.56384277 -9.27685547 8.91870117 C-11.17785231 9.95882834 -13.08757161 10.98107501 -15 12 C-17.04248763 13.10264731 -19.08425248 14.20663547 -21.125 15.3125 C-21.97320312 15.76238281 -22.82140625 16.21226562 -23.6953125 16.67578125 C-25.94590287 17.96891707 -27.96089397 19.39784526 -30 21 C-30 17 -30 17 -28.61474609 15.50341797 C-23.14974872 11.65064232 -17.50620823 8.30309784 -11.625 5.125 C-10.72394531 4.62742187 -9.82289062 4.12984375 -8.89453125 3.6171875 C-2.26633328 0 -2.26633328 0 0 0 Z " fill="#1BACFD" transform="translate(51,351)"/>
<path d="M0 0 C2.17376969 7.60819391 -0.75711663 16.492387 -4.203125 23.41796875 C-6.5589793 27.42717862 -6.5589793 27.42717862 -8 29 C-8.99 29 -9.98 29 -11 29 C-11 25.32192007 -9.88894626 23.7297727 -8.0625 20.5625 C-6.21099371 17.34534368 -4.78668318 14.61733782 -4 11 C-3.33115783 9.07674299 -2.64249235 7.16030185 -1.9375 5.25 C-1.57527344 4.26515625 -1.21304688 3.2803125 -0.83984375 2.265625 C-0.56269531 1.51796875 -0.28554687 0.7703125 0 0 Z " fill="#42A7FC" transform="translate(128,353)"/>
<path d="M0 0 C3.61624234 5.4243635 3.1826352 11.11812526 3.1875 17.4375 C3.19974609 18.27087891 3.21199219 19.10425781 3.22460938 19.96289062 C3.23588393 24.71699654 2.83808947 28.53191689 1 33 C0.67 33 0.34 33 0 33 C0 22.11 0 11.22 0 0 Z " fill="#3466BB" transform="translate(139,294)"/>
<path d="M0 0 C3.08123121 2.24089542 3.85445722 4.9929814 4.65625 8.62109375 C5.30138095 13.08569317 5.20740931 17.50390137 5 22 C4.97035156 22.721875 4.94070312 23.44375 4.91015625 24.1875 C4.75 26.0625 4.75 26.0625 4 29 C1.9375 30.4375 1.9375 30.4375 0 31 C0.16226074 30.42797852 0.32452148 29.85595703 0.49169922 29.26660156 C0.99838519 27.00720073 1.12921287 25.04533599 1.1328125 22.734375 C1.13410156 21.92613281 1.13539063 21.11789062 1.13671875 20.28515625 C1.13285156 19.44855469 1.12898437 18.61195313 1.125 17.75 C1.12886719 16.92886719 1.13273438 16.10773438 1.13671875 15.26171875 C1.12851728 10.08659294 0.74347743 5.12173338 0 0 Z " fill="#168FF9" transform="translate(140,294)"/>
<path d="M0 0 C0 0.66 0 1.32 0 2 C-0.59014893 2.31751221 -1.18029785 2.63502441 -1.78833008 2.9621582 C-4.46604645 4.40680239 -7.13928426 5.85954587 -9.8125 7.3125 C-10.74126953 7.81201172 -11.67003906 8.31152344 -12.62695312 8.82617188 C-13.51962891 9.31279297 -14.41230469 9.79941406 -15.33203125 10.30078125 C-16.15421143 10.74591064 -16.9763916 11.19104004 -17.82348633 11.6496582 C-19.9460235 12.96651217 -21.47636872 14.02287847 -23 16 C-23.50054751 18.11615844 -23.50054751 18.11615844 -23.51171875 20.44921875 C-23.54716797 21.29677734 -23.58261719 22.14433594 -23.61914062 23.01757812 C-23.64169922 23.89865234 -23.66425781 24.77972656 -23.6875 25.6875 C-23.72166016 26.58017578 -23.75582031 27.47285156 -23.79101562 28.39257812 C-23.87345648 30.59492671 -23.94261551 32.79687938 -24 35 C-24.33 35 -24.66 35 -25 35 C-26.78841316 16.38799676 -26.78841316 16.38799676 -22.97265625 11.29296875 C-20.05864809 9.50777293 -17.17487955 8.25999442 -14 7 C-11.79580845 5.71572896 -9.60767938 4.40344518 -7.4375 3.0625 C-2.26153846 0 -2.26153846 0 0 0 Z " fill="#13A8FB" transform="translate(75,313)"/>
<path d="M0 0 C1.33474077 4.36469975 0.9095624 7.85837133 -1 12 C-2.90455939 13.8186774 -4.63260768 14.76483879 -7 16 C-7.16358839 7.49340369 -7.16358839 7.49340369 -6 5 C-4.09492165 3.16390778 -2.10813303 1.61474019 0 0 Z " fill="#4C74FD" transform="translate(228,369)"/>
<path d="M0 0 C0.33 0 0.66 0 1 0 C1 5.28 1 10.56 1 16 C1.66 16.33 2.32 16.66 3 17 C2.69320312 17.56203125 2.38640625 18.1240625 2.0703125 18.703125 C0.97042415 21.06346934 0.39904149 23.20465562 -0.125 25.75 C-0.29257813 26.54921875 -0.46015625 27.3484375 -0.6328125 28.171875 C-0.81457031 29.07679688 -0.81457031 29.07679688 -1 30 C-1.33 30 -1.66 30 -2 30 C-2 21.75 -2 13.5 -2 5 C-1.34 5 -0.68 5 0 5 C0 3.35 0 1.7 0 0 Z " fill="#2699EC" transform="translate(187,354)"/>
<path d="M0 0 C0 3 0 3 -1.90625 5.09375 C-2.7621875 5.8878125 -3.618125 6.681875 -4.5 7.5 C-9.73187029 12.55300293 -13.91583772 17.9992476 -18 24 C-18.66 23.01 -19.32 22.02 -20 21 C-13.92082626 13.10457929 -7.53207637 6.49025646 0 0 Z " fill="#585959" transform="translate(122,106)"/>
<path d="M0 0 C0.4375 2.0625 0.4375 2.0625 0 5 C-2.12080183 7.57260172 -4.50627561 9.79254499 -7 12 C-7.66 11.67 -8.32 11.34 -9 11 C-9.5 8.3125 -9.5 8.3125 -9 5 C-6.72840115 3.03331375 -3.14803622 0 0 0 Z " fill="#15A1FD" transform="translate(219,329)"/>
<path d="M0 0 C0 0.66 0 1.32 0 2 C-1.78833008 3.58813477 -1.78833008 3.58813477 -4.26953125 5.44140625 C-5.15833984 6.10720703 -6.04714844 6.77300781 -6.96289062 7.45898438 C-7.90326172 8.15314453 -8.84363281 8.84730469 -9.8125 9.5625 C-10.74126953 10.26052734 -11.67003906 10.95855469 -12.62695312 11.67773438 C-19.59553846 16.86517949 -19.59553846 16.86517949 -23 18 C-23.33 18.66 -23.66 19.32 -24 20 C-24 19.01 -24 18.02 -24 17 C-23.34 17 -22.68 17 -22 17 C-22 16.34 -22 15.68 -22 15 C-19.76246465 13.22356837 -17.52777227 11.56762068 -15.1875 9.9375 C-14.22360352 9.24817383 -14.22360352 9.24817383 -13.24023438 8.54492188 C-10.4570241 6.58081183 -8.26197136 5.08732379 -5 4 C-5 3.34 -5 2.68 -5 2 C-2 0 -2 0 0 0 Z " fill="#12A8FE" transform="translate(206,250)"/>
<path d="M0 0 C0.66 0.33 1.32 0.66 2 1 C0.60493574 4.25042891 -0.96783394 6.07371792 -3.6875 8.3125 C-7.67494857 11.68032676 -11.36251736 15.26021316 -15 19 C-15 16 -15 16 -12.84765625 13.625 C-11.92855469 12.75875 -11.00945312 11.8925 -10.0625 11 C-6.21903356 7.5265833 -6.21903356 7.5265833 -4 3 C-1.9375 1.3125 -1.9375 1.3125 0 0 Z " fill="#6EAFE6" transform="translate(127,102)"/>
<path d="M0 0 C0.33 0 0.66 0 1 0 C1.3671875 2.63671875 1.3671875 2.63671875 1 6 C-0.92727731 8.23080876 -2.64419334 9.95179285 -4.875 11.8125 C-5.43058594 12.30169922 -5.98617187 12.79089844 -6.55859375 13.29492188 C-10.55869521 16.77934761 -10.55869521 16.77934761 -13 18 C-13.33 16.68 -13.66 15.36 -14 14 C-13.39671875 13.60167969 -12.7934375 13.20335937 -12.171875 12.79296875 C-11.37265625 12.26316406 -10.5734375 11.73335938 -9.75 11.1875 C-8.96109375 10.66542969 -8.1721875 10.14335937 -7.359375 9.60546875 C-2.70453866 6.81542946 -2.70453866 6.81542946 -0.25 2.3125 C-0.1675 1.549375 -0.085 0.78625 0 0 Z " fill="#0F9DFD" transform="translate(229,306)"/>
<path d="M0 0 C-0.33 1.32 -0.66 2.64 -1 4 C-6.28 4 -11.56 4 -17 4 C-17 3.67 -17 3.34 -17 3 C-14.54212344 2.49766027 -12.08374976 1.99803143 -9.625 1.5 C-8.57699219 1.28537109 -8.57699219 1.28537109 -7.5078125 1.06640625 C-2.2265625 0 -2.2265625 0 0 0 Z " fill="#5B6268" transform="translate(139,443)"/>
<path d="M0 0 C4.56030824 3.80475422 8.85089392 7.74969621 13 12 C12.67 12.66 12.34 13.32 12 14 C7.66666667 9.66666667 3.33333333 5.33333333 -1 1 C-0.67 0.67 -0.34 0.34 0 0 Z M-4 3 C-2 4 -2 4 -2 4 Z " fill="#12A8FD" transform="translate(130,417)"/>
<path d="M0 0 C0.66 0.33 1.32 0.66 2 1 C0.35 4.63 -1.3 8.26 -3 12 C-3.33 12 -3.66 12 -4 12 C-4.125 4.375 -4.125 4.375 -3 1 C-2.01 0.67 -1.02 0.34 0 0 Z " fill="#6775FE" transform="translate(221,390)"/>
<path d="M0 0 C0 3.29657856 -0.74333269 5.16364428 -2 8.1875 C-2.37125 9.08855469 -2.7425 9.98960937 -3.125 10.91796875 C-3.41375 11.60503906 -3.7025 12.29210937 -4 13 C-4.99 13 -5.98 13 -7 13 C-7.33 12.34 -7.66 11.68 -8 11 C-6.85539001 9.35331565 -5.70927742 7.70767566 -4.5625 6.0625 C-3.92441406 5.14597656 -3.28632813 4.22945313 -2.62890625 3.28515625 C-1 1 -1 1 0 0 Z " fill="#2986DB" transform="translate(206,259)"/>
<path d="M0 0 C0.66 0.33 1.32 0.66 2 1 C1.34 3.97 0.68 6.94 0 10 C-1.32 10.33 -2.64 10.66 -4 11 C-3.5247412 9.35303396 -3.04468109 7.70745272 -2.5625 6.0625 C-2.29566406 5.14597656 -2.02882812 4.22945313 -1.75390625 3.28515625 C-1 1 -1 1 0 0 Z " fill="#0EACEA" transform="translate(136,335)"/>
<path d="M0 0 C2.475 0.99 2.475 0.99 5 2 C5 2.66 5 3.32 5 4 C5.66 4 6.32 4 7 4 C9 7 9 7 8.625 9.1875 C8.41875 9.785625 8.2125 10.38375 8 11 C2.19794344 5.35475578 2.19794344 5.35475578 0 2 C0 1.34 0 0.68 0 0 Z " fill="#32A0FB" transform="translate(156,306)"/>
<path d="M0 0 C3.59207824 3.59207824 3.89459877 6.14343571 4 11 C3.79491065 14.3529724 3.4434576 17.67065679 3 21 C2.67 21 2.34 21 2 21 C1.34 14.07 0.68 7.14 0 0 Z " fill="#1F88F0" transform="translate(140,294)"/>
<path d="M0 0 C4.455 0.99 4.455 0.99 9 2 C9 2.99 9 3.98 9 5 C5.88742431 5 3.89234315 4.82638376 1 4 C0.67 2.68 0.34 1.36 0 0 Z " fill="#1D81FB" transform="translate(28,392)"/>
<path d="M0 0 C4.37708425 2.18854213 4.67790032 2.63957575 6.3125 6.9375 C6.65925781 7.81277344 7.00601563 8.68804687 7.36328125 9.58984375 C8 12 8 12 7 15 C4.69 10.05 2.38 5.1 0 0 Z " fill="#278AEC" transform="translate(132,279)"/>
<path d="M0 0 C1.37432457 3.81756824 0.67975039 7.07255329 0 11 C-1.65 11.66 -3.3 12.32 -5 13 C-4.72285156 12.31292969 -4.44570312 11.62585938 -4.16015625 10.91796875 C-3.79792969 10.01691406 -3.43570313 9.11585938 -3.0625 8.1875 C-2.70285156 7.29417969 -2.34320313 6.40085937 -1.97265625 5.48046875 C-1.26386514 3.6729091 -0.6139753 1.84192591 0 0 Z " fill="#41A0E4" transform="translate(128,353)"/>
<path d="M0 0 C3.03061766 2.02041177 3.72239767 2.75685563 5 6 C5 6.99 5 7.98 5 9 C2 8 2 8 0.25 5.625 C-1 3 -1 3 0 0 Z " fill="#1DAAFA" transform="translate(165,315)"/>
<path d="M0 0 C0.33 0.66 0.66 1.32 1 2 C-0.33332095 5.99996286 -2.4957827 6.83782337 -6 9 C-4.83857315 4.64464931 -3.92300495 2.35380297 0 0 Z " fill="#5A71FD" transform="translate(227,376)"/>
<path d="M0 0 C0 3 0 3 -1.75 5.04296875 C-2.4925 5.75066406 -3.235 6.45835938 -4 7.1875 C-4.7425 7.90292969 -5.485 8.61835937 -6.25 9.35546875 C-7.11625 10.16951172 -7.11625 10.16951172 -8 11 C-8.66 10.34 -9.32 9.68 -10 9 C-6.7 6.03 -3.4 3.06 0 0 Z " fill="#656C72" transform="translate(122,106)"/>
<path d="M0 0 C1 3 1 3 0.00390625 5.48046875 C-0.47175781 6.37378906 -0.94742188 7.26710938 -1.4375 8.1875 C-1.91058594 9.08855469 -2.38367188 9.98960937 -2.87109375 10.91796875 C-3.24363281 11.60503906 -3.61617187 12.29210937 -4 13 C-4.66 12.67 -5.32 12.34 -6 12 C-4.02 8.04 -2.04 4.08 0 0 Z " fill="#75A0FE" transform="translate(223,390)"/>
<path d="M0 0 C2.64752004 2.57784846 4.94432065 4.91648098 7 8 C5.1875 7.8125 5.1875 7.8125 3 7 C0 2.82142857 0 2.82142857 0 0 Z " fill="#3D86FC" transform="translate(136,282)"/>
</svg>
